<?xml version="1.0" encoding="utf-8"?>
<!-- Generator: Adobe Illustrator 23.0.3, SVG Export Plug-In . SVG Version: 6.00 Build 0)  -->
<svg version="1.1" xmlns="http://www.w3.org/2000/svg" xmlns:xlink="http://www.w3.org/1999/xlink" x="0px" y="0px"
	 viewBox="0 0 1600 1200" style="enable-background:new 0 0 1600 1200;" xml:space="preserve">
<style type="text/css">
	.st0{fill:#5222D0;}
	.st1{fill:#EC615B;}
	.st2{fill:#E8E8E8;}
	.st3{fill:#FFFFFF;stroke:#000000;stroke-width:3;stroke-miterlimit:10;}
	.st4{fill:#FFFFFF;}
	.st5{opacity:0.2;fill:#898989;}
	.st6{opacity:0.22;fill:#898989;}
	.st7{opacity:0.18;fill:#898989;}
	.st8{opacity:0.29;fill:#828282;}
	.st9{stroke:#000000;stroke-width:3;stroke-miterlimit:10;}
	.st10{opacity:0.28;fill:#828282;}
	.st11{fill:#FFFFFF;stroke:#000000;stroke-width:2;stroke-miterlimit:10;}
</style>
<g id="background">
	<circle class="st0" cx="335" cy="428.4" r="14.9"/>
	<circle class="st0" cx="956.1" cy="68.4" r="8.7"/>
	<circle class="st0" cx="1422.1" cy="344.7" r="16"/>
	<circle class="st1" cx="411" cy="472.5" r="9.6"/>
	<circle class="st1" cx="908.4" cy="99.3" r="8.1"/>
	<circle class="st1" cx="1205.8" cy="305.6" r="10.7"/>
	<circle class="st1" cx="695.6" cy="376.7" r="7.3"/>
	<circle class="st1" cx="315.5" cy="98.6" r="16.2"/>
	<g>
		<g>
			<path class="st2" d="M962.7,160.9c0.7-6.7,9-5.4,12.9-3.4c3,1.6,5.6,3.8,8.6,5.3c4.7,2.5,9.7,3.4,14.5,0.6
				c5.8-3.4,10.1-8.2,17.1-9.6c7-1.4,12,4,18.7,3.3c4.9-0.6,9-3.8,13.2-6.1c2.7-1.5,5.6-2.9,8.8-2.7c3.6,0.2,6.7,2.2,9.8,3.8
				c4.5,2.3,8.7,3.6,13.6,1.8c3.4-1.2,6.4-2.8,10.1-2.9c4.8-0.1,9.2,1.6,12.8,4.8c1.5,1.3,3.6-0.9,2.1-2.1
				c-4.7-4.1-10.6-6.2-16.8-5.5c-3.9,0.4-6.8,2.6-10.6,3.4c-4.6,1-8.4-1.4-12.3-3.4c-5.3-2.7-10-3.8-15.6-1.5
				c-6.6,2.7-12.4,9.2-20,6.8c-3.3-1.1-6.1-2.8-9.8-3c-3.2-0.1-6.4,0.6-9.4,1.8c-7.7,3.1-13.8,12.2-22.6,8.8
				c-6.5-2.5-11.9-9.2-19.5-8.5c-4.6,0.5-8.3,3.5-8.8,8.2C959.5,162.8,962.5,162.8,962.7,160.9L962.7,160.9z"/>
		</g>
	</g>
	<g>
		<g>
			<path class="st2" d="M1001.9,147.2c3.4-5.5,9.1-9.1,15.6-9.5c6.1-0.4,11.3,3,17.2,4.1c4.2,0.7,7.8-0.3,11.4-2.3
				c6.1-3.4,10.5-5.7,17.7-4.5c4.6,0.8,9.1,2.2,13.9,2.5c5.1,0.3,9-1.3,13.5-3.5c11.9-5.6,22.1,3.6,34.1,3.4c1.9,0,1.9-3,0-3
				c-11.7,0.2-22-8.9-33.8-3.8c-2.8,1.2-5.4,2.9-8.4,3.6c-3.4,0.8-6.9,0.3-10.3-0.3c-5.3-1-10.6-2.8-16-2.2c-5,0.5-8.6,3.4-12.9,5.6
				c-7.6,4-13.6-0.7-21.1-2.2c-9.3-1.8-18.6,2.7-23.6,10.6C998.3,147.4,1000.8,148.9,1001.9,147.2L1001.9,147.2z"/>
		</g>
	</g>
	<g>
		<g>
			<path class="st2" d="M504.5,492.4c2-9.9,15.4-2.5,20.8-1.2c6,1.4,11.3-0.7,16.6-3.4c3.3-1.7,6.6-3.6,10.3-4.3
				c4.2-0.8,8.2,0.6,12,2.1c5.6,2.1,11.4,4.7,17.3,2.3c5.3-2.1,10.6-10.2,16.9-8.7c5.4,1.3,8.2,6.5,14,2.8c3.4-2.1,5.4-3.8,9.7-2.7
				c2.6,0.7,5.1,2,7.6,3c4.1,1.6,8.2,2.6,12,0c1.6-1.1,0.1-3.7-1.5-2.6c-5.3,3.7-12-1.8-17.3-3.3c-2-0.5-4.1-0.8-6.1-0.4
				c-4.2,0.9-6.8,5.9-11.6,3.4c-4.5-2.4-7.8-4.7-12.9-2.3c-7.4,3.5-11,10.5-20.3,8.1c-6.5-1.7-12.2-5.6-19.2-4.8
				c-6.9,0.8-12.2,5.7-18.7,7.6c-8.4,2.5-14.7-4-22.9-3.5c-4.5,0.3-8.7,2.6-9.7,7.2C501.2,493.5,504.1,494.3,504.5,492.4
				L504.5,492.4z"/>
		</g>
	</g>
	<g>
		<g>
			<path class="st2" d="M576.3,471.5c4.7-4,11-5,16.7-2.4c3.6,1.6,6.7,3.7,10.8,3.8c8.5,0.1,21-9.3,27.8-0.5
				c0.6,0.8,1.9,0.4,2.4-0.3c6.9-11.4,21.5-7.8,31.9-4.7c1.9,0.5,2.6-2.3,0.8-2.9c-11.9-3.5-27.7-6.6-35.3,6.1
				c0.8-0.1,1.6-0.2,2.4-0.3c-7.9-10.1-20.4-0.1-30-0.3c-6.1-0.2-10.7-5.1-16.9-5.3c-4.8-0.1-9.1,1.7-12.7,4.8
				C572.7,470.7,574.9,472.8,576.3,471.5L576.3,471.5z"/>
		</g>
	</g>
	<g>
		<g>
			<path class="st2" d="M189.6,582.5c1.5-4.3,5.5-7.4,10.2-7.4c4.1,0,7.3,2.8,10.2,5.3c3.7,3.1,7.7,6.7,12.9,5.8
				c6.1-1.1,8.8-7.5,13.5-10.8c6.8-4.7,16-4.2,23.6-1.9c6.3,2,12.5,5.7,19.2,3.1c6.1-2.4,9.7-8.8,16.8-9.2
				c11.5-0.6,21.4,10.4,32.9,4.9c1.7-0.8,0.2-3.4-1.5-2.6c-11.9,5.7-23.9-9.1-36.4-4.3c-8.3,3.2-11.5,11.2-21.8,8.2
				c-7-2-13.1-5-20.6-4.9c-6,0.1-11.8,1.9-16.3,6c-3.2,2.9-5.8,8.2-10.6,8.5c-3.8,0.2-6.9-2.9-9.6-5.1c-4.1-3.4-8.3-6.8-14-6
				c-5.4,0.7-9.6,4.4-11.4,9.4C186.1,583.5,189,584.3,189.6,582.5L189.6,582.5z"/>
		</g>
	</g>
	<g>
		<g>
			<path class="st2" d="M125.7,889.3c29.5-21.7,63.4-37,99.2-44.8c17.9-3.9,36.3-5.9,54.6-5.8c20.3,0.1,40.4,2.4,60.6,3.9
				c22,1.6,44.2,1.8,65.8-3c1.9-0.4,1.1-3.3-0.8-2.9c-40.6,9.2-81.9-0.4-122.8-0.9c-35.9-0.5-71.7,6.7-104.8,20.6
				c-19,8-36.9,18.2-53.5,30.4C122.6,887.9,124.1,890.5,125.7,889.3L125.7,889.3z"/>
		</g>
	</g>
	<g>
		<g>
			<path class="st2" d="M335,846.1c25.6-18.5,51-37.5,77-55.5c12-8.3,24.6-16,38.5-20.8c13.6-4.6,27.9-6.1,42-8
				c13-1.7,26.1-3.8,38.3-9.1c10.9-4.7,20.4-11.9,29.1-19.9c18.8-17.5,34-38.7,56.9-51.3c27.4-15,59.4-18.4,90-21.5
				c1.9-0.2,1.9-3.2,0-3c-26.8,2.7-54.3,5.6-79.4,16.1c-23.8,9.9-40.4,27.4-57.8,45.7c-8.9,9.4-18.2,18.7-29.3,25.6
				c-12.2,7.6-26,11.1-40.1,13.3c-13.5,2.1-27.3,3.2-40.6,6.4c-13.9,3.3-26.7,9.5-38.7,17c-14.7,9.2-28.6,19.8-42.6,30
				c-14.9,10.8-29.8,21.6-44.8,32.3C332,844.6,333.5,847.2,335,846.1L335,846.1z"/>
		</g>
	</g>
	<g>
		<g>
			<path class="st2" d="M798.5,1009c16.6-15.8,37.7-25.2,58.4-34.6c23.8-10.8,47.8-19.1,74.1-12.2c1.9,0.5,2.7-2.4,0.8-2.9
				c-25.7-6.8-49.5,0.5-73.1,11c-22,9.8-44.6,19.7-62.3,36.5C794.9,1008.2,797.1,1010.3,798.5,1009L798.5,1009z"/>
		</g>
	</g>
	<g>
		<g>
			<path class="st2" d="M567.9,925.4c17-2.4,34.2,2,50.4,6.9c12.9,3.9,26.5,9.4,33.2,21.9c0.9,1.7,3.5,0.2,2.6-1.5
				c-6.9-12.7-20.4-18.8-33.6-22.8c-17.2-5.3-35.4-9.8-53.4-7.3C565.2,922.7,566,925.6,567.9,925.4L567.9,925.4z"/>
		</g>
	</g>
	<g>
		<g>
			<path class="st2" d="M712.1,915.7c18.2-19,43.8-29.5,70-28.6c1.9,0.1,1.9-2.9,0-3c-27-0.9-53.5,9.9-72.2,29.5
				C708.6,915,710.7,917.2,712.1,915.7L712.1,915.7z"/>
		</g>
	</g>
	<g>
		<g>
			<path class="st2" d="M713.8,800.4c20.1,3.4,37.9,15.3,48.7,32.7c1,1.6,3.6,0.1,2.6-1.5c-11.2-18-29.6-30.5-50.4-34
				C712.7,797.2,711.9,800.1,713.8,800.4L713.8,800.4z"/>
		</g>
	</g>
	<g>
		<g>
			<path class="st2" d="M818.6,780.5c21.7-21.7,51.9-33.4,82.6-32.1c1.9,0.1,1.9-2.9,0-3c-31.4-1.4-62.4,10.7-84.7,33
				C815.1,779.8,817.2,781.9,818.6,780.5L818.6,780.5z"/>
		</g>
	</g>
	<g>
		<g>
			<path class="st2" d="M761.3,1047.8c11.3-15.2,34.4-18.2,49.5-6.9c1.5,1.2,3-1.4,1.5-2.6c-16.5-12.4-41.3-8.4-53.6,8
				C757.5,1047.9,760.1,1049.4,761.3,1047.8L761.3,1047.8z"/>
		</g>
	</g>
	<g>
		<g>
			<path class="st2" d="M912.7,847.3c15-13.3,33-22.8,52.4-27.8c9.5-2.4,19.3-3.8,29.2-3.9c4.3-0.1,15.8,2.7,17.1-3.8
				c0.4-1.9-2.5-2.7-2.9-0.8c-0.6,3.4-10.9,1.6-13.3,1.6c-4.6,0-9.2,0.3-13.7,0.9c-8.7,1-17.3,2.9-25.6,5.7
				c-16.7,5.5-32,14.4-45.2,26.1C909.1,846.5,911.2,848.6,912.7,847.3L912.7,847.3z"/>
		</g>
	</g>
	<g>
		<g>
			<path class="st2" d="M936.8,737.8c12.8-1.6,24.9,7.6,26.7,20.4c0.3,1.9,3.2,1.1,2.9-0.8c-2-14-15.6-24.3-29.6-22.6
				C934.9,735,934.9,738,936.8,737.8L936.8,737.8z"/>
		</g>
	</g>
	<g>
		<g>
			<path class="st2" d="M980.7,758.8c22.4-26.4,58.3-39.3,92.3-33.1c1.9,0.3,2.7-2.5,0.8-2.9c-35-6.4-72.1,6.6-95.2,33.9
				C977.3,758.1,979.4,760.2,980.7,758.8L980.7,758.8z"/>
		</g>
	</g>
	<g>
		<g>
			<path class="st2" d="M485.5,1036.1c18.1-8.2,38.2-5.4,56.8-0.9c18.9,4.6,37.6,9.6,49.4,26.3c1.1,1.6,3.7,0.1,2.6-1.5
				c-5.3-7.6-12.2-13.8-20.5-18c-9.5-4.8-20.4-7.2-30.7-9.7c-19.5-4.8-40.3-7.3-59.1,1.2C482.2,1034.3,483.7,1036.8,485.5,1036.1
				L485.5,1036.1z"/>
		</g>
	</g>
	<g>
		<g>
			<path class="st2" d="M1053,947c31.9-20.4,70.9-28.9,108.4-23.1c9.5,1.5,18.9,3.8,28.5,4.1c9,0.3,17.2-2,25.4-5.5
				c18.4-7.7,36.9-13.1,57-13.8c21.9-0.8,43.9,3.4,64,12.2c1.8,0.8,3.3-1.8,1.5-2.6c-34.7-15.3-74.9-16.9-110.6-3.9
				c-9.8,3.6-19.2,9.1-29.8,10.3c-11.2,1.3-22.3-1.6-33.3-3.4c-17.8-2.9-36-2.9-53.8,0.2c-20.9,3.6-40.9,11.5-58.8,22.9
				C1049.9,945.5,1051.4,948.1,1053,947L1053,947z"/>
		</g>
	</g>
	<g>
		<g>
			<path class="st2" d="M1205.1,877.5c32.5-14,68-29,104.2-24.3c7.9,1,16,4.5,24,3.6c7.4-0.8,14.2-4.8,21.5-6.4
				c16.9-3.7,34.7-1,49.8,7.1c1.7,0.9,3.2-1.7,1.5-2.6c-14.1-7.6-30.1-10.6-46-8.5c-8.2,1.1-15.2,4.4-23.1,6.6
				c-9.4,2.6-19.1-1.7-28.5-2.9c-36.6-4.4-72.1,10.6-105,24.8C1201.9,875.7,1203.4,878.3,1205.1,877.5L1205.1,877.5z"/>
		</g>
	</g>
	<g>
		<g>
			<path class="st2" d="M198,998.5c16.5-9,35.9-7.4,53.3-2.4c9.6,2.7,18.9,6.4,28.2,9.9c7.7,2.8,17.2,7.7,25.5,7.1
				c7.1-0.5,13.8-6.1,20.4-8.6c8.3-3.1,17.1-4.9,25.9-5.4c17.3-0.9,34.4,3.3,49.3,12.3c1.7,1,3.2-1.6,1.5-2.6
				c-22.4-13.5-50.5-16.5-75.2-8c-5.9,2-11.2,5.1-16.8,7.7c-8.2,3.8-18.4-1.3-26.3-4.1c-14.5-5.2-28.9-11.5-44.2-14.1
				c-14.7-2.5-29.9-1.7-43.2,5.5C194.8,996.8,196.3,999.4,198,998.5L198,998.5z"/>
		</g>
	</g>
	<g>
		<g>
			<path class="st2" d="M1181.1,82.3c1,45.8,1,91.6,0.1,137.5c0,1.9,3,1.9,3,0c0.9-45.8,0.9-91.6-0.1-137.5
				C1184,80.4,1181,80.4,1181.1,82.3L1181.1,82.3z"/>
		</g>
	</g>
	<g>
		<g>
			<path class="st2" d="M1186.4,78.6c79.3,0,158.6,0,237.9,0c1.9,0,1.9-3,0-3c-79.3,0-158.6,0-237.9,0
				C1184.4,75.6,1184.4,78.6,1186.4,78.6L1186.4,78.6z"/>
		</g>
	</g>
	<g>
		<g>
			<path class="st2" d="M1196.9,223.1c74.6,0,149.2,0,223.8,0c1.9,0,1.9-3,0-3c-74.6,0-149.2,0-223.8,0
				C1195,220.1,1195,223.1,1196.9,223.1L1196.9,223.1z"/>
		</g>
	</g>
	<g>
		<g>
			<path class="st2" d="M1428.1,77.1c0,45.2,0,90.5,0,135.7c0,1.9,3,1.9,3,0c0-45.2,0-90.5,0-135.7
				C1431.1,75.1,1428.1,75.1,1428.1,77.1L1428.1,77.1z"/>
		</g>
	</g>
	<g>
		<g>
			<path class="st2" d="M1283.7,69.9c-0.3,2.4,1.7,4.1,4.1,3.6c3.5-0.7,3.9-5.5,4.9-8.2c1.1-2.9,2.6-5.7,4.4-8.3
				c1.5-2.1,2-3.7,4.6-3c2.5,0.7,2.2,1.9,2.9,4.1c1.9,6.5,3.5,13,4.9,19.5c0.4,1.9,3.3,1.1,2.9-0.8c-1.4-6.6-3-13.1-4.9-19.5
				c-0.8-2.7-1.6-7.7-5.2-8.1c-3.5-0.5-6.2,4-7.8,6.4c-1.6,2.2-2.9,4.6-3.9,7.2c-0.5,1.1-0.9,2.3-1.3,3.4c-0.2,0.5-0.3,1-0.5,1.6
				c-0.1,1.2-0.8,1.9-2,2.3C1287,68,1284,68,1283.7,69.9L1283.7,69.9z"/>
		</g>
	</g>
	<g>
		<g>
			<path class="st2" d="M1193.7,96.4c0,35.2,0,70.5,0,105.7c0,1.9,3,1.9,3,0c0-35.2,0-70.5,0-105.7
				C1196.7,94.5,1193.7,94.5,1193.7,96.4L1193.7,96.4z"/>
		</g>
	</g>
	<g>
		<g>
			<path class="st2" d="M1200.5,203.7c68.1,0,136.3,0,204.4,0c1.9,0,1.9-3,0-3c-68.1,0-136.3,0-204.4,0
				C1198.5,200.7,1198.5,203.7,1200.5,203.7L1200.5,203.7z"/>
		</g>
	</g>
	<g>
		<g>
			<path class="st2" d="M1202.2,96.2c69.3,0,138.6,0,208,0c1.9,0,1.9-3,0-3c-69.3,0-138.6,0-208,0
				C1200.3,93.2,1200.3,96.2,1202.2,96.2L1202.2,96.2z"/>
		</g>
	</g>
	<g>
		<g>
			<path class="st2" d="M1410.4,91.2c0,35.8,0,71.7,0,107.5c0,1.9,3,1.9,3,0c0-35.8,0-71.7,0-107.5
				C1413.4,89.2,1410.4,89.2,1410.4,91.2L1410.4,91.2z"/>
		</g>
	</g>
	<g>
		<g>
			<path class="st2" d="M1197.2,154.5c21.4-8.2,41.6,8.7,60,17.2c18.1,8.4,37.3,14,57.1,16.9c1.9,0.3,2.7-2.6,0.8-2.9
				c-21.9-3.2-43.1-9.7-62.9-19.7c-17.2-8.7-35.8-22.1-55.9-14.4C1194.6,152.3,1195.4,155.2,1197.2,154.5L1197.2,154.5z"/>
		</g>
	</g>
	<g>
		<g>
			<path class="st2" d="M1271.9,173.6c12.3-0.3,24.4-1.8,36.3-4.9c5.9-1.5,11.6-3.7,17.4-5.4c7.1-2.1,13-1.9,20.1,0
				c10.3,2.9,18.5,1.2,28-3.6c12.2-6.1,23.7-10.5,37.5-10.5c1.9,0,1.9-3,0-3c-11.3,0-22.2,2.5-32.3,7.5c-5.4,2.6-10.6,5.8-16.4,7.4
				c-6.9,1.9-12.6,0.1-19.2-1.6c-11.1-2.8-20.9,1.9-31.4,5c-13,3.8-26.4,5.7-40,6C1269.9,170.6,1269.9,173.6,1271.9,173.6
				L1271.9,173.6z"/>
		</g>
	</g>
	<g>
		<g>
			<path class="st2" d="M1366.9,155.9c-1.8-1.6-5.4-3.6-6.4-5.7c-1.2-0.8-1-2,0.8-3.4c0-2.3,0.9-3.4,2.8-3.3
				c1.1-0.5,2.5-0.4,3.7-0.5c3.2-0.4,6.6-1.4,8.2-4.4c1.3-2.3,0.7-4.1-0.4-6.2c-1.6-3.1-3.6-6.1-0.3-9.1c3.6-3.2,8.7-1.5,12.1,0.9
				c0.9,0.6,1.9-0.1,2.2-0.9c1.2-3.1,3.9-5.3,7.1-5.9c1.3-0.3,2.9-0.3,4.1,0.1c1.4,0.5,5.8,4.2,2.6,6c-1.7,1-0.2,3.6,1.5,2.6
				c5-2.9,1.7-9.7-2.8-11.3c-6.4-2.3-13.1,1.7-15.5,7.7c0.7-0.3,1.5-0.6,2.2-0.9c-4.3-2.9-10.2-4.5-14.8-1.2
				c-4.5,3.2-4.1,7.3-2.6,11.8c0.3,0.4,0.6,0.8,1,1.2c0.8,4.1-0.4,6.3-3.8,6.6c-2,0.4-4.1,0.3-6.1,0.8c-2.4,0.6-4.5,1.8-5.8,3.9
				c-3.4,5.8,4.4,10.2,8,13.4C1366.3,159.3,1368.4,157.1,1366.9,155.9L1366.9,155.9z"/>
		</g>
	</g>
	<g>
		<g>
			<path class="st2" d="M1291.6,126.9c-3.4-2.2-0.7-7.2,1.8-8.9c2.9-2,7.3-2.4,10.2-0.2c3.1,2.2,3.6,7.2,0.9,10.1
				c-2.8,3-7.6,2.4-10.3-0.4c-1.3-1.4-3.4,0.7-2.1,2.1c3.7,4,10.6,4.5,14.5,0.4c3.9-4.1,3.3-11.3-1.2-14.6
				c-4.5-3.3-11.5-2.4-15.3,1.4c-3.4,3.4-4.6,9.8-0.1,12.7C1291.7,130.5,1293.2,127.9,1291.6,126.9L1291.6,126.9z"/>
		</g>
	</g>
	<g>
		<g>
			<path class="st2" d="M397,120.7c-2.8,64-4.6,128-5.4,192.1c0,1.9,3,1.9,3,0c0.8-64.1,2.6-128.1,5.4-192.1
				C400.1,118.8,397.1,118.8,397,120.7L397,120.7z"/>
		</g>
	</g>
	<g>
		<g>
			<path class="st2" d="M396,309.9c83.9-20.9,167-44.8,249.2-71.7c23.5-7.7,46.9-15.6,70.2-23.7c1.8-0.6,1-3.5-0.8-2.9
				c-81.6,28.5-164.2,54.1-247.6,76.7c-23.8,6.5-47.7,12.7-71.7,18.7C393.4,307.4,394.2,310.3,396,309.9L396,309.9z"/>
		</g>
	</g>
	<g>
		<g>
			<path class="st2" d="M405.3,119.4c76.6-19.6,154.1-35.7,232.2-48.2c22.7-3.6,45.4-7,68.2-10c1.9-0.3,1.9-3.3,0-3
				c-78.8,10.5-157.2,24.6-234.7,42.2c-22.2,5.1-44.3,10.4-66.4,16.1C402.6,116.9,403.4,119.8,405.3,119.4L405.3,119.4z"/>
		</g>
	</g>
	<g>
		<g>
			<path class="st2" d="M706.1,60.1c2.7,50.1,5.4,100.2,8.1,150.3c0.1,1.9,3.1,1.9,3,0c-2.7-50.1-5.4-100.2-8.1-150.3
				C709,58.1,706,58.1,706.1,60.1L706.1,60.1z"/>
		</g>
	</g>
	<g>
		<g>
			<path class="st2" d="M397.9,141.7c10.4-2.6,20.9-5.1,31.3-7.7c-0.6-0.5-1.3-1-1.9-1.4c-4.8,54-6.4,108.2-4.7,162.4
				c0.1,1.9,3.1,1.9,3,0c-1.7-54.2-0.1-108.4,4.7-162.4c0.1-1-1-1.7-1.9-1.4c-10.4,2.6-20.9,5.1-31.3,7.7
				C395.3,139.3,396.1,142.2,397.9,141.7L397.9,141.7z"/>
		</g>
	</g>
	<g>
		<g>
			<path class="st2" d="M565.5,257.2c0.1-7.8,0.5-15.6,1.3-23.4c0.2-1.7-0.1-4.4,0.8-5.9c1.4-2.4,5.1-3.2,7.5-3.9c3.5-1,7-2,10.5-3
				c14.9-4.2,29.8-8.4,44.8-12.6c14.6-4.1,29.2-8.2,43.8-12.3c3.8-1.1,7.6-2.1,11.4-3.2c3.4-1,7.9-3.2,11.4-3.2
				c3.4,0,3.6,1.6,3.3,4.3c-0.2,1.8-0.3,3.7-0.5,5.5c-0.3,3.7-0.7,7.3-1,11c-0.2,1.9,2.8,1.9,3,0c0.4-4.9,0.9-9.8,1.3-14.7
				c0.2-2.4,1.2-5.7-0.5-7.8c-3.2-4.2-12.2,0.4-16,1.5c-18.4,5.2-36.8,10.4-55.2,15.6c-18.4,5.2-36.8,10.4-55.2,15.6
				c-5.4,1.5-10.6,2-11.8,8.1c-1.8,9.2-1.7,19.2-1.8,28.5C562.5,259.1,565.5,259.1,565.5,257.2L565.5,257.2z"/>
		</g>
	</g>
	<g>
		<g>
			<path class="st2" d="M564.8,225.4c-21-2.2-42.1-4.4-62.8-8.7c-1.2-0.2-2,0.7-1.8,1.8c1.3,8.1,1.7,16.9,3.9,24.8
				c1.5,5.2,6,6.4,10.6,8.2c14.6,5.7,29.8,9.6,45.3,11.9c1.9,0.3,2.7-2.6,0.8-2.9c-13.1-1.9-25.9-5-38.4-9.3c-2.9-1-5.8-2.1-8.6-3.2
				c-4.6-1.9-6.5-3.8-7.3-8.8c-1.1-7.1-2.2-14.3-3.3-21.4c-0.6,0.6-1.2,1.2-1.8,1.8c21,4.3,42.3,6.5,63.6,8.8
				C566.7,228.6,566.7,225.6,564.8,225.4L564.8,225.4z"/>
		</g>
	</g>
	<g>
		<g>
			<path class="st2" d="M504.1,217.4c12-4.5,24.1-8.5,36.4-11.9c1.9-0.5,1.1-3.4-0.8-2.9c-12.3,3.5-24.5,7.5-36.4,11.9
				C501.5,215.1,502.2,218,504.1,217.4L504.1,217.4z"/>
		</g>
	</g>
	<g>
		<g>
			<path class="st2" d="M578.3,194c0.7,7.2,1.4,14.4,2,21.5c0.2,1.9,3.2,1.9,3,0c-0.7-7.2-1.4-14.4-2-21.5
				C581.1,192.1,578.1,192.1,578.3,194L578.3,194z"/>
		</g>
	</g>
	<g>
		<g>
			<path class="st2" d="M578.1,192.4c18.4-1.2,35.8-8.6,53.5-13.3c18.6-5,37.5-8.8,56.6-11.5c-0.6-0.6-1.2-1.2-1.8-1.8
				c-1.1,7.3-1.8,14.6-2.2,21.9c-0.1,1.9,2.9,1.9,3,0c0.4-7.1,1.1-14.1,2.1-21.1c0.2-1.2-0.6-2-1.8-1.8c-18.5,2.6-36.7,6.3-54.8,11
				c-18,4.7-35.9,12.5-54.5,13.7C576.1,189.5,576.1,192.5,578.1,192.4L578.1,192.4z"/>
		</g>
	</g>
	<g>
		<g>
			<path class="st2" d="M541.6,185.3c-0.4,4.9-1.9,10.9-1.3,15.7c0.4,2.9,2.2,3.8,4.7,4.6c11.4,3.5,23.3,5.7,34.9,8.5
				c1.9,0.5,2.7-2.4,0.8-2.9c-8.7-2.1-17.5-4.3-26.2-6.4c-2.2-0.5-4.7-0.8-6.8-1.7c-2.8-1.2-4-2.2-4.3-5.5
				c-0.3-3.9,0.7-8.5,1.1-12.4C544.7,183.3,541.7,183.3,541.6,185.3L541.6,185.3z"/>
		</g>
	</g>
	<g>
		<g>
			<path class="st2" d="M542.1,183.7c11.9,1.9,23.8,3.8,35.7,5.7c1.9,0.3,2.7-2.6,0.8-2.9c-11.9-1.9-23.8-3.8-35.7-5.7
				C541,180.6,540.2,183.4,542.1,183.7L542.1,183.7z"/>
		</g>
	</g>
	<g>
		<g>
			<path class="st2" d="M544.7,180.4c19-5.4,38-10.7,57-16.1c18.8-5.3,37.7-10.6,57.2-12c1.9-0.1,1.9-3.1,0-3
				c-19.2,1.4-37.7,6.4-56.2,11.6c-19.6,5.5-39.2,11.1-58.9,16.6C542.1,178,542.9,180.9,544.7,180.4L544.7,180.4z"/>
		</g>
	</g>
	<g>
		<g>
			<path class="st2" d="M652.1,151.7c11.4,3.7,22.4,8.3,33,13.9c1.7,0.9,3.2-1.7,1.5-2.6c-10.9-5.6-22.1-10.4-33.7-14.2
				C651,148.2,650.2,151.1,652.1,151.7L652.1,151.7z"/>
		</g>
	</g>
	<g>
		<g>
			<path class="st2" d="M426.6,162c5.7-2.1,11.6-3.4,17.7-3.3c2.5,0,5.3-0.2,6.6,3.1c0.4,1,0,2.9,0.1,4c0,3,0.1,6,0.1,9
				c0.2,12.6,0.3,25.3,0.5,37.9c0.3,24.9,0.7,49.9,1,74.8c0,1.9,3,1.9,3,0c-0.4-29.3-0.8-58.5-1.1-87.8c-0.1-7.3-0.2-14.6-0.3-21.9
				c0-3.3-0.1-6.7-0.1-10c0-2.7,0.6-6.2-0.4-8.8c-1.4-3.6-6.1-3.3-9.2-3.3c-6.4-0.1-12.6,1.2-18.5,3.4
				C424,159.8,424.8,162.7,426.6,162L426.6,162z"/>
		</g>
	</g>
	<g>
		<g>
			<path class="st2" d="M457.1,261c15.6-4.3,31.1-8.6,46.7-12.9c1.9-0.5,1.1-3.4-0.8-2.9c-15.6,4.3-31.1,8.6-46.7,12.9
				C454.5,258.7,455.2,261.5,457.1,261L457.1,261z"/>
		</g>
	</g>
	<g>
		<g>
			<path class="st2" d="M399.7,336.2c-0.5,16.1-1,32.3-1.6,48.4c-0.1,1.9,2.9,1.9,3,0c0.5-16.1,1-32.3,1.6-48.4
				C402.8,334.3,399.8,334.3,399.7,336.2L399.7,336.2z"/>
		</g>
	</g>
	<g>
		<g>
			<path class="st2" d="M586.8,239.5c0.7-5.9,8.5-4.9,12.6-5.4c2.4-0.3,4.6-1,6.6-2.2c2.5-1.5,4.3-3.8,6.8-5.4
				c2.8-1.8,8.5-3,9.3,1.7c0.2,1.2,1.8,1.4,2.5,0.7c3.6-3.3,7.3-6.7,11.7-8.9c2.6-1.3,5.4-2.2,8.3-2.1c1.9,0.1,3.5,0.9,5.4,0.9
				c3.1,0,6.1-2.1,8.8-3.5c4.8-2.3,9.5-4.7,14.3-7c1.7-0.8,0.2-3.4-1.5-2.6c-4.8,2.3-9.5,4.7-14.3,7c-3.1,1.5-5.5,3-9.1,2.7
				c-2-0.2-3.7-0.6-5.9-0.4c-7.8,0.9-14.3,6.5-19.8,11.7c0.8,0.2,1.7,0.4,2.5,0.7c-0.5-3.2-3-4.9-6.1-5.4c-4.1-0.6-7.1,1.4-10.2,3.9
				c-3.2,2.6-5.4,4.5-9.5,5.2c-2.8,0.4-5.7,0.1-8.4,0.9c-3.8,1.1-6.4,3.6-6.9,7.5C583.6,241.4,586.6,241.4,586.8,239.5L586.8,239.5z
				"/>
		</g>
	</g>
	<g>
		<g>
			<path class="st2" d="M600.9,196.8c4.5-4.3,12.5,0.5,18.1-0.4c2.4-0.4,4.2-1.7,6.4-2.7c3.7-1.7,7.7-1.2,11.7-1.9
				c12.7-2.2,24-13,37.4-10.5c1.9,0.4,2.7-2.5,0.8-2.9c-14.5-2.7-25.8,8.5-39.5,10.5c-3.5,0.5-7.1,0.2-10.4,1.5
				c-1.9,0.7-3.6,2.1-5.5,2.7c-2.3,0.7-4.6,0.3-6.9,0c-5-0.8-10.1-2.4-14.2,1.5C597.4,196,599.5,198.1,600.9,196.8L600.9,196.8z"/>
		</g>
	</g>
	<g>
		<g>
			<path class="st2" d="M398.8,336.5c82.4-26,164.8-52,247.1-77.9c23.4-7.4,46.9-14.8,70.3-22.2c1.8-0.6,1.1-3.5-0.8-2.9
				c-82.4,26-164.8,52-247.1,77.9c-23.4,7.4-46.9,14.8-70.3,22.2C396.2,334.2,397,337.1,398.8,336.5L398.8,336.5z"/>
		</g>
	</g>
	<g>
		<g>
			<path class="st2" d="M400.3,384.8c83.4-21.5,165.4-48.7,245.1-81.3c22-9,43.9-18.4,65.6-28.3c1.8-0.8,0.2-3.4-1.5-2.6
				c-78.1,35.4-158.5,65.5-240.7,90c-23,6.9-46.1,13.3-69.3,19.3C397.6,382.4,398.4,385.3,400.3,384.8L400.3,384.8z"/>
		</g>
	</g>
	<g>
		<g>
			<path class="st2" d="M713,238.2c0.1,11.3,0.3,22.5,0.4,33.8c0,1.9,3,1.9,3,0c-0.1-11.3-0.3-22.5-0.4-33.8
				C716,236.3,713,236.2,713,238.2L713,238.2z"/>
		</g>
	</g>
</g>
<g id="wire">
	<path class="st0" d="M555.8,709.2c15.4-9.5,36-25.7,47.7-51.6c12.3-27.2,4.7-42.8,10.7-66.7c11.9-47.1,55.1-40.5,101.8-94.1
		c48.4-55.5,30.7-95.5,87.2-151.2c19.7-19.5,39.3-31.8,52.7-39.2c-0.8,7.8-1.7,15.6-2.5,23.5c-3.8,1.9-9.7,5.1-16.4,9.7
		c-18.8,13-36,32.4-56.9,76.7c-19.2,40.6-10.8,37.4-23.4,58.7c-21.9,37.3-55.9,61.6-77,76.6c-26.4,18.8-41.3,23.5-48.8,42.9
		c-6.6,17.1-0.2,26.8-2.4,46.5c-2,18-10.9,42.3-41.8,69.7C576.4,710.1,566.1,709.7,555.8,709.2z"/>
</g>
<g id="laptop">
	<polygon class="st3" points="378.9,809.1 530.4,840.9 683.8,715.2 544.8,708.7 	"/>
	<g>
		<g>
			<path d="M415.3,800.8c31.9,5.4,63.5,12,94.9,19.7c1.9,0.5,2.7-2.4,0.8-2.9c-31.4-7.7-63.1-14.3-94.9-19.7
				C414.2,797.6,413.3,800.5,415.3,800.8L415.3,800.8z"/>
		</g>
	</g>
	<g>
		<g>
			<path d="M416.6,798.4c41.8-25.5,83.6-51.1,125.4-76.6c1.6-1,0.1-3.6-1.5-2.6c-41.8,25.5-83.6,51.1-125.4,76.6
				C413.5,796.9,415,799.5,416.6,798.4L416.6,798.4z"/>
		</g>
	</g>
	<g>
		<g>
			<path d="M542.7,720.3c29,2.4,58.1,3.8,87.3,4.4c1.9,0,1.9-3,0-3c-29.1-0.5-58.2-2-87.3-4.4C540.7,717.1,540.7,720.1,542.7,720.3
				L542.7,720.3z"/>
		</g>
	</g>
	<g>
		<g>
			<path d="M511.2,820.3c39.5-32.4,79.3-64.5,119.3-96.1c1.5-1.2-0.6-3.3-2.1-2.1c-40.1,31.7-79.8,63.7-119.3,96.1
				C507.6,819.4,509.8,821.6,511.2,820.3L511.2,820.3z"/>
		</g>
	</g>
	<g>
		<g>
			<path d="M430.1,790.3c29.3,5.8,58.4,12.6,87.2,20.4c1.9,0.5,2.7-2.4,0.8-2.9c-28.8-7.8-57.9-14.7-87.2-20.4
				C429,787,428.2,789.9,430.1,790.3L430.1,790.3z"/>
		</g>
	</g>
	<g>
		<g>
			<path d="M451.5,778.3c26.8,5.3,53.2,12.7,78.9,22.1c1.8,0.7,2.6-2.2,0.8-2.9c-25.7-9.4-52.1-16.7-78.9-22.1
				C450.4,775,449.6,777.9,451.5,778.3L451.5,778.3z"/>
		</g>
	</g>
	<g>
		<g>
			<path d="M522.7,795.5c18.3-13.9,36.7-27.9,55-41.8c1.5-1.2,0-3.8-1.5-2.6c-18.3,13.9-36.7,27.9-55,41.8
				C519.7,794.1,521.2,796.7,522.7,795.5L522.7,795.5z"/>
		</g>
	</g>
	<g>
		<g>
			<path d="M471,766c20.9,5.6,41.5,12.1,61.8,19.5c1.8,0.7,2.6-2.2,0.8-2.9c-20.3-7.4-40.9-13.9-61.8-19.5
				C469.9,762.6,469.1,765.5,471,766L471,766z"/>
		</g>
	</g>
	<g>
		<g>
			<path d="M493,753.2c19.6,4.8,38.7,11.4,57.1,19.8c1.7,0.8,3.3-1.8,1.5-2.6c-18.6-8.5-37.9-15.2-57.8-20.1
				C492,749.9,491.2,752.8,493,753.2L493,753.2z"/>
		</g>
	</g>
	<g>
		<g>
			<path d="M510.3,742.5c18.8,6.2,37.5,12.4,56.3,18.7c1.8,0.6,2.6-2.3,0.8-2.9c-18.8-6.2-37.5-12.4-56.3-18.7
				C509.3,739,508.5,741.9,510.3,742.5L510.3,742.5z"/>
		</g>
	</g>
	<g>
		<g>
			<path d="M523.9,731.9c23.8,5.1,47.5,10.2,71.3,15.3c1.9,0.4,2.7-2.5,0.8-2.9c-23.8-5.1-47.5-10.2-71.3-15.3
				C522.8,728.6,522,731.5,523.9,731.9L523.9,731.9z"/>
		</g>
	</g>
	<g>
		<g>
			<path d="M577.8,753.2c3.4-1.8,6.3-4.2,8.7-7.2c1.2-1.5-0.9-3.6-2.1-2.1c-2.3,2.8-5,5-8.1,6.7
				C574.6,751.5,576.1,754.1,577.8,753.2L577.8,753.2z"/>
		</g>
	</g>
	<g>
		<g>
			<path d="M539.1,725c23.6,4.8,47.2,9.6,70.7,14.3c1.9,0.4,2.7-2.5,0.8-2.9c-23.6-4.8-47.2-9.6-70.7-14.3
				C538,721.7,537.2,724.6,539.1,725L539.1,725z"/>
		</g>
	</g>
	<g>
		<g>
			<path d="M452.5,794c34.4-22.3,68.1-45.6,101-69.9c1.5-1.1,0-3.7-1.5-2.6c-32.9,24.4-66.6,47.7-101,69.9
				C449.4,792.5,450.9,795.1,452.5,794L452.5,794z"/>
		</g>
	</g>
	<g>
		<g>
			<path d="M474.2,798.8c33.5-24.7,67.1-49.4,100.6-74.1c1.5-1.1,0-3.7-1.5-2.6c-33.5,24.7-67.1,49.4-100.6,74.1
				C471.2,797.3,472.7,799.9,474.2,798.8L474.2,798.8z"/>
		</g>
	</g>
	<g>
		<g>
			<path d="M495.1,804.4c32.2-27.3,65.2-53.6,99-78.8c1.5-1.1,0-3.7-1.5-2.6c-34,25.4-67.3,51.8-99.6,79.3
				C491.5,803.5,493.7,805.6,495.1,804.4L495.1,804.4z"/>
		</g>
	</g>
	<path class="st3" d="M296.5,647.7c27.5,53.8,55,107.6,82.5,161.4c55.3-33.5,110.6-66.9,165.9-100.4
		c-22.1-46.1-44.3-92.1-66.4-138.2C417.8,596.2,357.1,621.9,296.5,647.7z"/>
	<path class="st3" d="M632.9,590.9"/>
	<path class="st3" d="M310.9,652c24.3,46.5,48.6,92.9,72.9,139.4c48.9-28.9,97.7-57.8,146.6-86.8c-19.6-39.8-39.1-79.6-58.7-119.4
		C418.1,607.5,364.5,629.8,310.9,652z"/>
	<g>
		<g>
			<path class="st2" d="M372.2,687.2c3.7,7,7.8,13.7,12.4,20.1c0.5,0.7,1.3,0.9,2.1,0.5c28.4-14.7,56.8-29.3,85.2-44
				c1.7-0.9,0.2-3.5-1.5-2.6c-28.4,14.7-56.8,29.3-85.2,44c0.7,0.2,1.4,0.4,2.1,0.5c-4.6-6.4-8.8-13.1-12.4-20.1
				C373.9,683.9,371.3,685.5,372.2,687.2L372.2,687.2z"/>
		</g>
	</g>
	<g>
		<g>
			<path class="st2" d="M376.7,686.1c17.7-5.9,33.4-15.8,49.5-24.9c8.4-4.8,17-9.4,26-13c2-0.8,4.1-1.5,6.1-2.2
				c1.5-0.5,5.4-2.4,7.1-2.1c2.4,0.5,2.5,4.7,2.9,6.6c0.6,3,1.3,5.9,1.9,8.9c0.4,1.9,3.3,1.1,2.9-0.8c-0.6-3-1.3-5.9-1.9-8.9
				c-0.5-2.1-0.5-5-1.7-7c-1.7-2.9-4.7-1.8-7.3-1.1c-9.8,2.7-19.2,7-28.2,11.7c-19.3,10.2-37.3,22.9-58.1,29.8
				C374,683.8,374.8,686.7,376.7,686.1L376.7,686.1z"/>
		</g>
	</g>
	<g>
		<g>
			<path class="st2" d="M423.5,660.7c4,6.5,8,13,12,19.5c1,1.6,3.6,0.1,2.6-1.5c-4-6.5-8-13-12-19.5
				C425.1,657.5,422.5,659.1,423.5,660.7L423.5,660.7z"/>
		</g>
	</g>
	<g>
		<g>
			<path class="st2" d="M406.9,644.7c2.7-0.9,5.3-1.7,8-2.6c-0.6-0.6-1.2-1.2-1.8-1.8c-1.7,6.4-1.4,12.8,1,19c0.7,1.8,3.6,1,2.9-0.8
				c-2.2-5.7-2.5-11.5-1-17.4c0.3-1.1-0.7-2.2-1.8-1.8c-2.7,0.9-5.3,1.7-8,2.6C404.2,642.4,405,645.3,406.9,644.7L406.9,644.7z"/>
		</g>
	</g>
	<g>
		<g>
			<path class="st2" d="M409.6,652.9c3.2-3.7,7.3-6.1,12.1-7.1c1.9-0.4,1.1-3.3-0.8-2.9c-5.3,1-10,3.7-13.5,7.8
				C406.3,652.2,408.4,654.3,409.6,652.9L409.6,652.9z"/>
		</g>
	</g>
	<g>
		<g>
			<path class="st2" d="M428,646.3c-1.6-2.5-3.5-5.3-3.4-8.4c0.1-2.2,2.5-5.7,5.2-4.4c2.2,1.1,3,5.8,2.8,8c-0.3,2.8-3,5.7-5.9,4
				c-1.7-1-3.2,1.6-1.5,2.6c3.5,2,7.8,0.3,9.5-3.2c1.9-3.8,0.7-10.5-2.6-13.3c-2.9-2.5-7.1-0.8-9.1,2c-3.3,4.6-0.2,10.2,2.4,14.3
				C426.5,649.4,429.1,647.9,428,646.3L428,646.3z"/>
		</g>
	</g>
	<g>
		<g>
			<path class="st2" d="M443.3,624c-0.6,6.3-1.2,12.6-1.8,18.8c-0.2,1.9,2.8,1.9,3,0c0.6-6.3,1.2-12.6,1.8-18.8
				C446.5,622.1,443.5,622.1,443.3,624L443.3,624z"/>
		</g>
	</g>
	<g>
		<g>
			<path class="st2" d="M437.3,625.5c1.9,0,1.9-3,0-3C435.4,622.5,435.4,625.5,437.3,625.5L437.3,625.5z"/>
		</g>
	</g>
	<g>
		<g>
			<path class="st2" d="M453.3,638.6c1.9,0,1.9-3,0-3C451.4,635.6,451.4,638.6,453.3,638.6L453.3,638.6z"/>
		</g>
	</g>
	<g>
		<g>
			<path class="st2" d="M395.1,716.4c7.5-2,14.9-4.6,21.9-7.9c7.6-3.6,14.3-9.3,22.1-12.4c6.8-2.7,13.6-4.3,19.9-8.1
				c5.9-3.6,11.1-8.3,15.5-13.6c1.2-1.5-0.9-3.6-2.1-2.1c-4.6,5.6-9.9,10.4-16.2,14c-6.3,3.6-13.3,4.9-19.8,7.9
				c-6.7,3.1-12.6,7.8-19.3,11.1c-7.3,3.6-14.9,6.3-22.8,8.4C392.5,714,393.2,716.9,395.1,716.4L395.1,716.4z"/>
		</g>
	</g>
</g>
<g id="pillows">
	<path class="st4" d="M1120.6,344.4c-5.7,5.4-7.5,11.9-8.3,14.8c-7.1,26.6-7.2,42-7.2,42c-0.2,31.8-4.1,23.5-5.7,68.6
		c-0.6,17.3-0.7,38.6,0.5,62.9c-3.9,5.8-9.4,15.1-13.6,27.4c-5,14.4-8.4,24.1-4.1,33.9c5.5,12.7,20.4,17.4,24.1,18.6
		c7.6,2.4,10.8,1.1,28.9,3.9c6.2,1,11.2,2,14.6,2.7c-2.9,6-7.2,14.8-10.1,20.8c-6.4,13.2-12.8,26.4-19.2,39.6
		c6.2,3.6,15.1,8.7,26,14.5c23.2,12.4,34.8,18.6,47.5,22.9c8.2,2.8,26.8,8.4,51,9.1c16.5,0.5,28.4-1.5,47-4.6
		c18.6-3.1,33.8-6.9,44.4-9.9c2-10.4,4.6-23.6,8-38.7c0.9-4.1,5.3-23.2,12.3-49.4c4.6-17,10.5-37.8,18.1-61.7
		c-9.4-1.5-18.8-3.1-28.2-4.6c6.9-11.8,12.9-21.2,17-27.7c4.6-7.2,13.4-20.7,21.2-39c3.1-7.3,5-13,2.9-19
		c-2.7-7.6-10.4-11.1-12.1-11.9c-6.8-3.1-12.9-2.2-21.5-1.2c-10.3,1.2-20.8,1.4-31.1,2.8c-11.3,1.5-27.6,2.4-48.9-0.9
		c-1.1-18.1-1.3-32.9-1.2-43.3c0.2-20.9,1.3-32.2-6-37.6c-1.5-1.1-2.9-1.7-18.2-3.8c-9.4-1.3-14.1-1.9-22.6-2.8
		c-9.6-1-23-2.4-37.6-6.6c-19.7-5.6-29.5-8.4-38.6-16.9c-5.6-5.3-9.2-11.1-16-11.3C1127.7,337.7,1122.3,342.8,1120.6,344.4z"/>
	<path class="st5" d="M1186.9,637c2.4,8.9,7.6,23.3,20,35.5c19.3,19.1,44.5,21.6,72.1,24.3c14.1,1.4,35.2,2.2,60.8-2.1
		c2.1-10.1,4.9-22.5,8.3-36.7c2.2-9.3,6.8-28,13.5-51.6c3.7-13,8.1-28,13.4-44.7c-8.6-2-17.2-4-25.8-6c-8.8,15-15.9,27.3-20.8,35.8
		c-14.1,24.9-21.1,38-34.8,60.8c-5.1,8.5-9.4,15.5-12.2,20c-4.3,0.3-10.3,0.5-17.4,0c-5.1-0.4-26.5-2.3-50.4-15.6
		C1206.6,652.8,1196.9,646.6,1186.9,637z"/>
	<path class="st6" d="M1269.8,468c5.4,4.2,12.9,11,19.7,21.2c1.4,2.1,9.4,14.4,13,31.3c5.4,25.3-2.1,46.7-7.8,62.6
		c-13.7,37.9-37.2,64.6-54.8,80.8c3.4,2.5,8.4,5.5,14.8,7.5c11.6,3.7,21.7,2.3,26.9,1.2c25.5-42.7,46.5-77.9,64.3-106.9
		c7.9-12.9,21-34.1,33.6-64.8c4.4-10.6,7.5-19.6,9.5-25.6c-1.7-4.3-5.4-11.9-13.2-15.6c-5.6-2.7-11-2.3-13.6-2.1
		c-31.2,2.8-46.8,4.2-49.5,4.6c-11.4,1.6-28.4,2.1-50.5-4.2C1264.9,461.3,1267.3,464.6,1269.8,468z"/>
	<path class="st7" d="M1105.1,407.5c5.1,18,10.2,36,15.3,54.1c24.4-20.2,48.8-40.5,73.2-60.7c-15.5,15.5-27.9,30-37.6,42.3
		c-4.4,5.6-18.7,24.1-34.6,50.5c-9.1,15.1-16.1,28.5-21.4,39.2c-0.7-13.1-1.1-26.8-0.9-41.1C1099.4,461.1,1101.7,432.9,1105.1,407.5
		z"/>
	<g>
		<g>
			<path d="M1128.1,486.8c8.7-14.3,18.1-28.2,28.2-41.6c10.1-13.4,20.7-27.7,32.9-39.2c15.8-14.8,31.1,4.3,40.8,16.3
				c9.6,11.9,18.8,24.1,28.7,35.7c10.9,12.6,22.7,24.4,36.4,34c1.6,1.1,3.1-1.5,1.5-2.6c-27.6-19.2-46.6-47.4-67.7-73.1
				c-8-9.8-20.7-23.8-34.8-17.5c-6.8,3-11.8,10-16.6,15.4c-6,6.9-11.9,13.9-17.5,21.1c-12.5,15.9-24,32.6-34.6,49.9
				C1124.5,486.9,1127.1,488.4,1128.1,486.8L1128.1,486.8z"/>
		</g>
	</g>
	<g>
		<g>
			<path d="M1262,459.4c21.6,5.1,43.9,6.4,65.8,3.7c10.9-1.4,21.8-4.7,32.8-4.8c10.5-0.1,23,4.3,26.5,15.4
				c1.8,5.9-0.7,11.1-3.4,16.2c-2.7,5.2-5.5,10.3-8.3,15.4c-5.6,10.3-11.2,20.5-16.8,30.8c-11.3,20.5-22.8,40.8-34.5,61
				c-13.3,23-26.9,45.9-40.7,68.7c-1,1.7,1.6,3.2,2.6,1.5c26.3-43.3,51.7-87.1,76.2-131.5c6-10.8,11.9-21.6,17.7-32.5
				c4.4-8.1,12.1-17.9,10.7-27.7c-1.1-8.1-7.6-14.5-14.8-17.7c-8.9-4-19-2.9-28.3-1.3c-14.1,2.4-27.9,4.8-42.3,4.8
				c-14.3,0-28.6-1.7-42.5-5C1261,456.1,1260.2,459,1262,459.4L1262,459.4z"/>
		</g>
	</g>
	<g>
		<g>
			<path d="M1129.6,477.4c-13.9,22.1-26.7,44.9-38.1,68.4c-8.8,18.2-21.7,43.2-2.7,59.5c17.4,14.9,42.6,9.8,63.1,16.1
				c23,7,41.7,22.8,62.1,34.8c21,12.4,46.7,22,70.8,13.1c1.8-0.7,1-3.6-0.8-2.9c-44.7,16.3-82.2-26.9-119.4-43.4
				c-9.1-4.1-18.6-6.7-28.5-7.8c-11.6-1.4-23.6-1.3-34.5-5.7c-11-4.4-19.6-13.1-19.8-25.5c-0.2-12.3,6.3-24.1,11.5-34.9
				c11.6-24.1,24.6-47.5,38.9-70.1C1133.2,477.3,1130.6,475.7,1129.6,477.4L1129.6,477.4z"/>
		</g>
	</g>
	<g>
		<g>
			<path d="M1101.6,532.7c-1.5-29.9-1.2-59.9,0.9-89.7c1.1-15.4,2.7-30.8,4.8-46.2c1.7-12.7,2.9-26.2,6.9-38.4
				c1.5-4.6,3.7-9.5,7.4-12.9c5.9-5.5,13.3-4,19.8-0.4c11.5,6.2,22.6,12.5,34.8,17.2c12.6,4.9,25.8,8.5,39.1,10.8
				c12.1,2.1,24.1,2.3,36.3,3.2c6.2,0.4,13.8,1.6,17.5,7.2c4.2,6.5,2.4,18.2,2.5,25.6c0.2,17.2,0.4,34.5,0.6,51.7c0,1.9,3,1.9,3,0
				c-0.2-16.6-0.4-33.2-0.6-49.7c-0.1-11,3-27.6-8.4-34.2c-9.8-5.7-23.2-3.7-34-4.6c-15.1-1.3-30.1-4.4-44.6-9
				c-14.5-4.7-28.3-11-41.4-18.7c-9.1-5.3-19.5-9.1-27.8-0.3c-7.6,8-9.2,20.1-11,30.5c-2.6,15.5-4.7,31.1-6.3,46.8
				c-3.7,36.9-4.6,74.1-2.8,111.1C1098.7,534.7,1101.7,534.7,1101.6,532.7L1101.6,532.7z"/>
		</g>
	</g>
	<g>
		<g>
			<path d="M1147.9,621.5c-4.9,9.5-9.9,18.9-14.8,28.4c-2.5,4.7-4.9,9.5-7.4,14.2c-2.1,4-5,8.1-6.3,12.4c-0.6,2.1-0.5,3.9,1.2,5.4
				c3.2,3,8.5,4.7,12.3,6.7c9.2,4.8,18.4,9.7,27.6,14.5c17,8.9,34.5,17.3,53.4,21.3c19,4,38.6,4,57.9,1.8
				c22.1-2.5,43.8-7.8,65.3-13.1c1.9-0.5,1.1-3.4-0.8-2.9c-35.2,8.7-71.7,17.6-108.2,13.5c-37.1-4.2-70-25.1-102.4-42.3
				c0.3,0.1-2.5-1.1-2.7-1.5c-1.1-1.5,0.2-4.1,0.8-5.5c1.1-2.7,2.8-5.4,4.2-8c2.5-4.7,4.9-9.5,7.4-14.2c5.1-9.8,10.2-19.5,15.2-29.3
				C1151.4,621.3,1148.8,619.8,1147.9,621.5L1147.9,621.5z"/>
		</g>
	</g>
	<g>
		<g>
			<path d="M1346.4,557.3c9.9,0.2,19.3,2.2,28.4,6c-0.3-0.6-0.7-1.2-1-1.8c-15.6,49-28.5,98.8-38.6,149.1c-0.4,1.9,2.5,2.7,2.9,0.8
				c10.1-50.4,23-100.2,38.6-149.1c0.3-0.8-0.3-1.5-1-1.8c-9.3-3.9-19.1-5.9-29.2-6.1C1344.4,554.2,1344.4,557.2,1346.4,557.3
				L1346.4,557.3z"/>
		</g>
	</g>
</g>
<g id="robot">
	<g id="leg_right">
		<path class="st3" d="M891.9,636.1c-25.7,34.1-51.5,68.1-77.3,102c-66,86.8-132.4,173.2-199.2,259.4c4.6,0.8,11.5,2.7,18.9,7.1
			c6.6,3.9,11.3,8.5,14.1,11.8c96.1-124.3,192.2-248.7,288.4-373C921.8,640.9,906.9,638.5,891.9,636.1z"/>
		<path class="st3" d="M570.7,938c-3.8,2.2-1.9,12.2-1.2,16.1c4.1,21.5,10.9,60.7,19.9,113c12.1,1.7,24.3,3.5,36.4,5.2
			c8.6-15.7,17.3-31.4,25.9-47.2c-1.1-2.8-2.8-7-5.3-11.8c-5.7-10.6-11.7-17.1-18.3-24.3c-20.6-22.3-25.7-28.3-37.9-39
			C577.9,939.1,573.3,936.5,570.7,938z"/>
		<g>
			<g>
				<path d="M574.5,947.9c14,15.3,19.3,37.1,26.1,56.1c7.8,21.6,15.5,43.1,23.3,64.7c0.6,1.8,3.5,1,2.9-0.8
					c-8.2-22.8-16.4-45.6-24.6-68.5c-6.6-18.4-12-38.9-25.5-53.7C575.4,944.3,573.2,946.4,574.5,947.9L574.5,947.9z"/>
			</g>
		</g>
		<g>
			<g>
				<path d="M638.8,969.5c12.6-2.6,25.5,5.4,28.9,17.7c0.5,1.9,3.4,1.1,2.9-0.8c-3.9-14-18.5-22.7-32.6-19.8
					C636.1,967,636.9,969.9,638.8,969.5L638.8,969.5z"/>
			</g>
		</g>
		<g>
			<g>
				<path d="M660.7,941.8c12.1-1.9,23.9,6.6,26.2,18.6c0.4,1.9,3.3,1.1,2.9-0.8c-2.6-13.7-16.2-22.9-29.9-20.7
					C658,939.2,658.8,942.1,660.7,941.8L660.7,941.8z"/>
			</g>
		</g>
		<g>
			<g>
				<path d="M684.6,910.9c13-5.5,27.2,3,28.6,17c0.2,1.9,3.2,1.9,3,0c-1.6-16.5-17.9-26-33.1-19.6
					C681.3,909.1,682.8,911.7,684.6,910.9L684.6,910.9z"/>
			</g>
		</g>
		<g>
			<g>
				<path d="M703.3,885.5c7.2-2.3,14.2-3.2,20.3,2.2c4.6,4.1,6.6,10,7.5,16c0.3,1.9,3.2,1.1,2.9-0.8c-1-7.1-3.8-14.1-9.8-18.5
					c-6.8-5.1-14-4.2-21.7-1.8C700.7,883.2,701.5,886.1,703.3,885.5L703.3,885.5z"/>
			</g>
		</g>
		<g>
			<g>
				<path d="M723.9,857.1c13.8-4.7,28.2,4,29.7,18.6c0.2,1.9,3.2,1.9,3,0c-1.7-16.5-17.7-27-33.5-21.5
					C721.3,854.8,722.1,857.7,723.9,857.1L723.9,857.1z"/>
			</g>
		</g>
		<g>
			<g>
				<path d="M747.9,827c13.6-3.5,26.5,5.2,28.6,19c0.3,1.9,3.2,1.1,2.9-0.8c-2.3-15.5-17.2-25-32.3-21.1
					C745.3,824.6,746.1,827.5,747.9,827L747.9,827z"/>
			</g>
		</g>
		<g>
			<g>
				<path d="M766.7,802.2c5.9-4.1,13.5-2.7,18.8,1.7c5.5,4.6,8.2,11.4,10.4,18.1c0.6,1.8,3.5,1,2.9-0.8c-2.6-7.9-6.1-16.3-13.4-21.1
					c-6.1-4-14.2-4.7-20.3-0.5C763.6,800.7,765.1,803.3,766.7,802.2L766.7,802.2z"/>
			</g>
		</g>
		<g>
			<g>
				<path d="M787.2,778.3c5.5-3.4,12.3-0.9,17.6,1.8c5.8,3,9.4,8,10.7,14.3c0.4,1.9,3.3,1.1,2.9-0.8c-1.6-7.6-6.4-13.4-13.4-16.7
					c-6.1-2.9-13.2-5-19.4-1.2C784.1,776.7,785.6,779.3,787.2,778.3L787.2,778.3z"/>
			</g>
		</g>
		<g>
			<g>
				<path d="M808.2,749.1c13-4.1,26.5,1.9,31.7,14.7c0.7-0.6,1.5-1.1,2.2-1.7c-0.3-0.2-0.6-0.3-1-0.5c-1.7-0.8-3.3,1.7-1.5,2.6
					c0.3,0.2,0.6,0.3,1,0.5c1,0.5,2.7-0.4,2.2-1.7c-5.7-14.2-20.7-21.4-35.4-16.7C805.6,746.8,806.4,749.7,808.2,749.1L808.2,749.1z
					"/>
			</g>
		</g>
		<g>
			<g>
				<path d="M829.7,720.3c14.4-2.9,27.4,7.5,28,22.1c0.1,1.9,3.1,1.9,3,0c-0.7-16.7-15.4-28.2-31.8-25
					C827,717.8,827.8,720.7,829.7,720.3L829.7,720.3z"/>
			</g>
		</g>
		<g>
			<g>
				<path d="M847.5,695.7c14.1-5.2,28.8,2.8,32,17.6c0.4,1.9,3.3,1.1,2.9-0.8c-3.4-16.2-20.1-25.4-35.7-19.7
					C844.9,693.4,845.7,696.3,847.5,695.7L847.5,695.7z"/>
			</g>
		</g>
		<g>
			<g>
				<path d="M866.1,674.7c13.9-4.7,27.9,3.3,30.8,17.7c0.4,1.9,3.3,1.1,2.9-0.8c-3.2-15.9-19.2-25-34.5-19.8
					C863.5,672.4,864.3,675.3,866.1,674.7L866.1,674.7z"/>
			</g>
		</g>
		<g>
			<g>
				<path d="M881.9,651c13.1-2.4,29.2,1.1,33.1,15.7c0.5,1.9,3.4,1.1,2.9-0.8c-4.4-16.3-22.1-20.4-36.8-17.8
					C879.2,648.5,880,651.4,881.9,651L881.9,651z"/>
			</g>
		</g>
		<path class="st8" d="M915.8,639.9c-35.1,47.4-70.4,94.6-106,141.6c-56.1,74.1-112.9,147.7-170.2,220.8
			c-15.3-23.1-31.1-37.4-42.6-46.3c-1.4-1-21.1-16.1-23.6-13.5c-1.9,2,6.8,13.2,14,22c9.6,24,18.9,49.1,27.8,75.1
			c3.7,10.9,7.3,21.8,10.7,32.5c11.6-22.8,23.1-45.6,34.7-68.3c19.9-26.1,49.9-65.4,69.9-91.5c68.7-89.8,137.4-179.5,206.3-269.1
			C929.7,642.2,922.8,641.1,915.8,639.9z"/>
	</g>
	<g id="leg_left">
		<path class="st3" d="M1016.2,664.2c-25.7,34.1-51.5,68.1-77.3,102c-66,86.8-132.4,173.2-199.2,259.4c4.6,0.8,11.5,2.7,18.9,7.1
			c6.6,3.9,11.3,8.5,14.1,11.8c96.1-124.3,192.2-248.7,288.4-373C1046,669,1031.1,666.6,1016.2,664.2z"/>
		<path class="st3" d="M694.9,966.1c-3.8,2.2-1.9,12.2-1.2,16.1c4.1,21.5,10.9,60.7,19.9,113c12.1,1.7,24.3,3.5,36.4,5.2
			c8.6-15.7,17.3-31.4,25.9-47.2c-1.1-2.8-2.8-7-5.3-11.8c-5.7-10.6-11.7-17.1-18.3-24.3c-20.6-22.3-25.7-28.3-37.9-39
			C702.1,967.1,697.5,964.6,694.9,966.1z"/>
		<g>
			<g>
				<path d="M698.8,975.9c14,15.3,19.3,37.1,26.1,56.1c7.8,21.6,15.5,43.1,23.3,64.7c0.6,1.8,3.5,1,2.9-0.8
					c-8.2-22.8-16.4-45.6-24.6-68.5c-6.6-18.4-12-38.9-25.5-53.7C699.6,972.4,697.5,974.5,698.8,975.9L698.8,975.9z"/>
			</g>
		</g>
		<g>
			<g>
				<path d="M763,997.6c12.6-2.6,25.5,5.4,28.9,17.7c0.5,1.9,3.4,1.1,2.9-0.8c-3.9-14-18.5-22.7-32.6-19.8
					C760.3,995.1,761.1,997.9,763,997.6L763,997.6z"/>
			</g>
		</g>
		<g>
			<g>
				<path d="M784.9,969.8c12.1-1.9,23.9,6.6,26.2,18.6c0.4,1.9,3.3,1.1,2.9-0.8c-2.6-13.7-16.2-22.9-29.9-20.7
					C782.2,967.2,783,970.1,784.9,969.8L784.9,969.8z"/>
			</g>
		</g>
		<g>
			<g>
				<path d="M808.8,939c13-5.5,27.2,3,28.6,17c0.2,1.9,3.2,1.9,3,0c-1.6-16.5-17.9-26-33.1-19.6C805.5,937.2,807,939.8,808.8,939
					L808.8,939z"/>
			</g>
		</g>
		<g>
			<g>
				<path d="M827.6,913.6c7.2-2.3,14.2-3.2,20.3,2.2c4.6,4.1,6.6,10,7.5,16c0.3,1.9,3.2,1.1,2.9-0.8c-1-7.1-3.8-14.1-9.8-18.5
					c-6.8-5.1-14-4.2-21.7-1.8C824.9,911.3,825.7,914.2,827.6,913.6L827.6,913.6z"/>
			</g>
		</g>
		<g>
			<g>
				<path d="M848.1,885.1c13.8-4.7,28.2,4,29.7,18.6c0.2,1.9,3.2,1.9,3,0c-1.7-16.5-17.7-27-33.5-21.5
					C845.5,882.9,846.3,885.8,848.1,885.1L848.1,885.1z"/>
			</g>
		</g>
		<g>
			<g>
				<path d="M872.2,855.1c13.6-3.5,26.5,5.2,28.6,19c0.3,1.9,3.2,1.1,2.9-0.8c-2.3-15.5-17.2-25-32.3-21.1
					C869.5,852.7,870.3,855.6,872.2,855.1L872.2,855.1z"/>
			</g>
		</g>
		<g>
			<g>
				<path d="M890.9,830.3c5.9-4.1,13.5-2.7,18.8,1.7c5.5,4.6,8.2,11.4,10.4,18.1c0.6,1.8,3.5,1,2.9-0.8c-2.6-7.9-6.1-16.3-13.4-21.1
					c-6.1-4-14.2-4.7-20.3-0.5C887.8,828.8,889.3,831.4,890.9,830.3L890.9,830.3z"/>
			</g>
		</g>
		<g>
			<g>
				<path d="M911.4,806.4c5.5-3.4,12.3-0.9,17.6,1.8c5.8,3,9.4,8,10.7,14.3c0.4,1.9,3.3,1.1,2.9-0.8c-1.6-7.6-6.4-13.4-13.4-16.7
					c-6.1-2.9-13.2-5-19.4-1.2C908.3,804.8,909.8,807.4,911.4,806.4L911.4,806.4z"/>
			</g>
		</g>
		<g>
			<g>
				<path d="M932.4,777.2c13-4.1,26.5,1.9,31.7,14.7c0.7-0.6,1.5-1.1,2.2-1.7c-0.3-0.2-0.6-0.3-1-0.5c-1.7-0.8-3.3,1.7-1.5,2.6
					c0.3,0.2,0.6,0.3,1,0.5c1,0.5,2.7-0.4,2.2-1.7c-5.7-14.2-20.7-21.4-35.4-16.7C929.8,774.9,930.6,777.8,932.4,777.2L932.4,777.2z
					"/>
			</g>
		</g>
		<g>
			<g>
				<path d="M954,748.3c14.4-2.9,27.4,7.5,28,22.1c0.1,1.9,3.1,1.9,3,0c-0.7-16.7-15.4-28.2-31.8-25
					C951.3,745.8,952.1,748.7,954,748.3L954,748.3z"/>
			</g>
		</g>
		<g>
			<g>
				<path d="M971.7,723.7c14.1-5.2,28.8,2.8,32,17.6c0.4,1.9,3.3,1.1,2.9-0.8c-3.4-16.2-20.1-25.4-35.7-19.7
					C969.1,721.5,969.9,724.4,971.7,723.7L971.7,723.7z"/>
			</g>
		</g>
		<g>
			<g>
				<path d="M990.4,702.7c13.9-4.7,27.9,3.3,30.8,17.7c0.4,1.9,3.3,1.1,2.9-0.8c-3.2-15.9-19.2-25-34.5-19.8
					C987.8,700.5,988.5,703.4,990.4,702.7L990.4,702.7z"/>
			</g>
		</g>
		<g>
			<g>
				<path d="M1006.1,679.1c13.1-2.4,29.2,1.1,33.1,15.7c0.5,1.9,3.4,1.1,2.9-0.8c-4.4-16.3-22.1-20.4-36.8-17.8
					C1003.4,676.5,1004.2,679.4,1006.1,679.1L1006.1,679.1z"/>
			</g>
		</g>
		<path class="st8" d="M1040,668c-35.1,47.4-70.4,94.6-106,141.6c-56.1,74.1-112.9,147.7-170.2,220.8
			c-15.3-23.1-31.1-37.4-42.6-46.3c-1.4-1-21.1-16.1-23.6-13.5c-1.9,2,6.8,13.2,14,22c9.6,24,18.9,49.1,27.8,75.1
			c3.7,10.9,7.3,21.8,10.7,32.5c11.6-22.8,23.1-45.6,34.7-68.3c19.9-26.1,49.9-65.4,69.9-91.5c68.7-89.8,137.4-179.5,206.3-269.1
			C1054,670.3,1047,669.1,1040,668z"/>
	</g>
	<g id="hand_right">
		<path class="st3" d="M848,388.9c-8.3,10.8-18.2,25.3-27.2,43.6c-2.9,5.9-12.1,25-19.1,51.6c-4,15.1-7.9,34.9-9.1,58.5
			c11.3,1.7,22.6,3.3,33.9,5c2.9-21.3,8.3-47.1,18.2-75.3c7.9-22.5,17-41.8,25.8-57.8C863,406,855.5,397.5,848,388.9z"/>
		<g>
			<g>
				<path d="M795.5,530.4c9.4-6.8,22.7-5.5,30.4,3.2c1.3,1.4,3.4-0.7,2.1-2.1c-8.6-9.6-23.6-11.3-34-3.7
					C792.5,528.9,794,531.5,795.5,530.4L795.5,530.4z"/>
			</g>
		</g>
		<g>
			<g>
				<path d="M797.3,508.9c9.9-11.1,27.7-7.3,31.9,7.1c0.5,1.8,3.4,1.1,2.9-0.8c-4.9-16.5-25.4-21.3-36.9-8.4
					C793.9,508.2,796,510.3,797.3,508.9L797.3,508.9z"/>
			</g>
		</g>
		<g>
			<g>
				<path d="M801.9,488.4c9.9-11.7,28.3-7.8,32.3,7.1c0.5,1.9,3.4,1.1,2.9-0.8c-4.5-17-25.9-22-37.3-8.5
					C798.5,487.7,800.6,489.9,801.9,488.4L801.9,488.4z"/>
			</g>
		</g>
		<g>
			<g>
				<path d="M807.6,470c4.4-5.4,11.7-7.2,18.2-4.8c6.6,2.4,11.1,8.3,14,14.4c0.8,1.7,3.4,0.2,2.6-1.5c-3.4-7.3-9.1-14-17.1-16.2
					c-7.2-2-15.1,0.1-19.8,6C804.3,469.3,806.4,471.5,807.6,470L807.6,470z"/>
			</g>
		</g>
		<g>
			<g>
				<path d="M815,448.5c6.5-4.2,13.5-5,19.9,0.1c4.7,3.8,9,8.8,10.8,14.6c0.6,1.8,3.5,1,2.9-0.8c-2.3-7.2-8.1-14.2-14.5-18.1
					c-6.7-4.1-14.2-2.5-20.5,1.6C811.9,447,813.4,449.6,815,448.5L815,448.5z"/>
			</g>
		</g>
		<g>
			<g>
				<path d="M824.5,429.2c6.8-2.6,13.6-4,19.5,1.4c3.9,3.6,8.1,9,9.2,14.3c0.8-0.5,1.7-1,2.5-1.5c-0.3-0.2-0.6-0.5-0.9-0.7
					c-1.5-1.2-3.6,0.9-2.1,2.1c0.3,0.2,0.6,0.5,0.9,0.7c1.2,0.9,2.8,0.1,2.5-1.5c-1.4-6.4-6.7-13.4-11.9-17.2
					c-6.5-4.8-13.5-3.2-20.5-0.6C821.9,427,822.7,429.9,824.5,429.2L824.5,429.2z"/>
			</g>
		</g>
		<g>
			<g>
				<path d="M836,408.2c14.6-4.5,23.5,11.7,24.3,23.9c0.1,1.9,3.1,1.9,3,0c-1-14.1-11.5-31.9-28.1-26.8
					C833.4,405.8,834.2,408.7,836,408.2L836,408.2z"/>
			</g>
		</g>
	</g>
	<g id="torso">
		<path class="st9" d="M1059.3,408.5c0,0,16.3,102.3,16.9,106.5c0.7,4.3-8.2,157.5-8.2,157.5l50.4-47.4
			c-7.9-85.2-15.8-170.5-23.7-255.7C1083,382.5,1071.1,395.5,1059.3,408.5z"/>
		<polygon class="st3" points="846.8,384.6 917.2,360.7 1094.8,369.4 1059.3,408.5 		"/>
		<path class="st3" d="M846.8,384.6l35.3,133.9c-2,41-3.9,82.1-5.9,123.1c63.9,10.3,127.9,20.6,191.8,31c3-51.1,5.9-102.1,8.9-153.2
			l-17.6-110.8L846.8,384.6z"/>
		<g>
			<g>
				<path d="M988.1,428.8c-0.7,7.8,0,15.4,2.3,22.9c0.6,1.8,3.5,1.1,2.9-0.8c-2.2-7.3-2.9-14.6-2.2-22.1
					C991.3,426.9,988.3,426.9,988.1,428.8L988.1,428.8z"/>
			</g>
		</g>
		<g>
			<g>
				<path d="M990.2,429.9c12.9,0.6,25.8,1.5,38.7,2.8c1.9,0.2,1.9-2.8,0-3c-12.9-1.3-25.7-2.3-38.7-2.8
					C988.3,426.8,988.3,429.8,990.2,429.9L990.2,429.9z"/>
			</g>
		</g>
		<g>
			<g>
				<path d="M992.4,454c12.1,1.6,24.3,2.3,36.5,2.1c1.9,0,1.9-3,0-3c-12.2,0.2-24.4-0.5-36.5-2.1C990.5,450.7,990.5,453.7,992.4,454
					L992.4,454z"/>
			</g>
		</g>
		<g>
			<g>
				<path d="M1027.7,433.1c2.9,6.4,3.2,13.3,1,20c-0.6,1.8,2.3,2.6,2.9,0.8c2.4-7.5,1.9-15.1-1.3-22.3
					C1029.5,429.8,1026.9,431.3,1027.7,433.1L1027.7,433.1z"/>
			</g>
		</g>
		<g>
			<g>
				<path d="M1031.8,438.5c2.1-0.1,4.1,1.4,4.7,3.5c0.4,1.6-0.9,4.9-2.9,3.4c-1.5-1.2-3,1.4-1.5,2.6c3.4,2.5,7.5-1.3,7.6-4.8
					c0.1-4.2-3.7-7.7-7.8-7.6C1029.9,435.6,1029.8,438.6,1031.8,438.5L1031.8,438.5z"/>
			</g>
		</g>
		<g>
			<g>
				<path d="M994.2,435.5c-0.2,4.3,0.3,8.5,1.4,12.7c0.5,1.9,3.4,1.1,2.9-0.8c-1-3.9-1.4-7.8-1.3-11.9
					C997.3,433.5,994.3,433.5,994.2,435.5L994.2,435.5z"/>
			</g>
		</g>
		<g>
			<g>
				<path d="M996.2,435.8c2.4,0.1,4.8,0.3,7.2,0.6c-0.4-0.5-0.7-1-1.1-1.4c-0.3,4.3-0.2,8.6,0.2,13c0.2,1.9,3.2,1.9,3,0
					c-0.5-4.3-0.5-8.6-0.2-13c0-0.6-0.5-1.4-1.1-1.4c-2.7-0.4-5.3-0.7-8-0.8C994.3,432.8,994.3,435.8,996.2,435.8L996.2,435.8z"/>
			</g>
		</g>
		<g>
			<g>
				<path d="M997.3,449.5c2.2,0.3,4.4,0.3,6.6-0.1c1.9-0.4,1.1-3.3-0.8-2.9c-1.6,0.3-3.3,0.4-5,0.1c-0.8-0.1-1.6,0.2-1.8,1
					C996.1,448.3,996.5,449.4,997.3,449.5L997.3,449.5z"/>
			</g>
		</g>
		<g>
			<g>
				<path d="M1007.4,434.8c-0.7,4.7-0.5,9.4,0.6,14.1c0.5,1.9,3.4,1.1,2.9-0.8c-1-4.1-1.3-8.3-0.6-12.5
					C1010.6,433.7,1007.7,432.9,1007.4,434.8L1007.4,434.8z"/>
			</g>
		</g>
		<g>
			<g>
				<path d="M1009.2,435.9c2,0.5,4.1,1,6.1,1.5c-0.4-0.5-0.7-1-1.1-1.4c0.3,4,0.6,8,1,11.9c0.2,1.9,3.2,1.9,3,0c-0.3-4-0.6-8-1-11.9
					c-0.1-0.7-0.4-1.3-1.1-1.4c-2-0.5-4.1-1-6.1-1.5C1008.1,432.6,1007.3,435.5,1009.2,435.9L1009.2,435.9z"/>
			</g>
		</g>
		<g>
			<g>
				<path d="M1009.9,449.7c2.4,1.2,5.1,1.1,7.3-0.3c1.7-1,0.1-3.6-1.5-2.6c-1.3,0.8-2.9,0.9-4.3,0.3
					C1009.7,446.3,1008.2,448.9,1009.9,449.7L1009.9,449.7z"/>
			</g>
		</g>
		<g>
			<g>
				<path d="M1018.8,435.7c-0.3,3.7-0.5,7.7,0.4,11.3c0.7,3.1,3.8,2.9,6.4,2.3c1.9-0.5,1.1-3.4-0.8-2.9c-0.8,0.2-1.5,0.3-2.3,0.3
					c-0.5,0.2-0.7-0.1-0.5-0.9c-0.3-1-0.3-2.3-0.3-3.4c-0.1-2.2-0.1-4.4,0.1-6.7C1022,433.8,1019,433.8,1018.8,435.7L1018.8,435.7z"
					/>
			</g>
		</g>
		<g>
			<g>
				<path d="M1020.6,436.6c1,0.2,2.2,0.3,3.2,0.6c0,0,0.9,0.3,0.7,0.1c0.3,0.3,0,2,0,2.4c0,2.7,0.1,5.4,0.1,8c0,1.9,3,1.9,3,0
					c0-1.9-0.1-3.8-0.1-5.7c0-1.7,0.2-3.7-0.1-5.4c-0.5-2.7-3.8-2.6-6-3C1019.5,433.3,1018.7,436.2,1020.6,436.6L1020.6,436.6z"/>
			</g>
		</g>
		<g>
			<g>
				<path d="M859.7,403.6c11,35,20.8,70.4,29.6,106.1c0.5,1.9,3.4,1.1,2.9-0.8c-8.8-35.6-18.6-71-29.6-106.1
					C862,401,859.1,401.8,859.7,403.6L859.7,403.6z"/>
			</g>
		</g>
		<g>
			<g>
				<path d="M891.6,520.4c-1.9,36.3-4.5,72.5-8,108.7c-0.2,1.9,2.8,1.9,3,0c3.4-36.2,6.1-72.4,8-108.7
					C894.7,518.5,891.7,518.5,891.6,520.4L891.6,520.4z"/>
			</g>
		</g>
		<g>
			<g>
				<path d="M885.7,632.1c57.4,5.7,114.4,14.8,170.7,27.2c1.9,0.4,2.7-2.5,0.8-2.9c-56.6-12.4-113.9-21.5-171.5-27.3
					C883.8,628.9,883.8,631.9,885.7,632.1L885.7,632.1z"/>
			</g>
		</g>
		<g>
			<g>
				<path d="M861.6,403.8c40.5,6.7,81.1,12.2,121.9,16.5c1.9,0.2,1.9-2.8,0-3c-40.5-4.3-80.9-9.7-121.1-16.4
					C860.5,400.6,859.7,403.5,861.6,403.8L861.6,403.8z"/>
			</g>
		</g>
		<g>
			<g>
				<path d="M894.7,624.3c-0.2-0.6-0.5-1.3-0.7-1.9c0,0.3,0,0.5,0,0.8c0.4-1.1,2.1-0.9,2.2,0.2c0.2,1.1-1.3,1.4-1.7,0.6
					c-0.9-1.7-3.5-0.2-2.6,1.5c1,1.7,3.2,2.4,5,1.7c2-0.8,2.8-3.1,2.1-5c-0.8-2.1-2.9-3.1-5-2.5c-1,0.3-1.8,0.9-2.4,1.8
					c-0.4,0.5-0.6,1.1-0.5,1.8c0.1,0.6,0.5,1.3,0.7,1.9C892.5,626.9,895.4,626.1,894.7,624.3L894.7,624.3z"/>
			</g>
		</g>
		<g>
			<g>
				<path d="M871.8,413.8C871.9,413.9,871.9,413.6,871.8,413.8c0-0.2,0-0.1,0-0.2c0.1-0.2,0.2-0.3,0.3-0.3c0,0,0.2-0.1,0.1,0
					c0,0,0,0-0.1,0c0.2,0.1,0.2,0.1,0.1,0c0.2,0.1,0.3,0.2,0.4,0.4c-0.1-0.2,0.1,0.2,0.1,0.3c0-0.1-0.1,0.1,0,0c0.1-0.2-0.2,0.2,0,0
					c-0.2,0.2,0,0-0.2,0.1c0.2-0.1-0.2,0-0.2,0c0.3,0-0.2,0-0.2,0c0.2,0-0.1-0.1-0.1,0c-0.1-0.1-0.1-0.1,0,0
					c-0.1-0.1-0.1-0.1-0.2-0.2c-0.5-0.6-1.6-0.5-2.1,0c-0.6,0.6-0.5,1.5,0,2.1c1,1.3,3.1,1.5,4.5,0.6c1.6-1,1.9-3,1-4.6
					c-1-1.6-3-2.2-4.6-1.2c-1.6,1-2.1,3-1.3,4.6c0.4,0.7,1.4,0.9,2.1,0.5C872,415.4,872.2,414.5,871.8,413.8L871.8,413.8z"/>
			</g>
		</g>
		<g>
			<g>
				<path d="M1055.1,476.9c3.2,13,6.1,26,8.7,39.1c0.4,1.9,3.3,1.1,2.9-0.8c-2.6-13.1-5.5-26.1-8.7-39.1
					C1057.6,474.2,1054.7,475,1055.1,476.9L1055.1,476.9z"/>
			</g>
		</g>
		<g>
			<g>
				<path d="M1064.7,516.6c-0.4,14.7-1.4,29.5-3,44.1c-0.2,1.9,2.8,1.9,3,0c1.5-14.7,2.5-29.4,3-44.1
					C1067.7,514.7,1064.7,514.7,1064.7,516.6L1064.7,516.6z"/>
			</g>
		</g>
	</g>
	<g id="book">
		<path class="st3" d="M732,479.7c0.9,0.2,8.1,1.5,13.6-3.5c3.2-2.9,4.2-6.4,4.6-7.9c1.9,2.2,4,4.4,6.6,6.6
			c12.1,10.2,23.6,8.5,34.8,13.8c6.2,2.9,14.5,9,21.7,23c4.4-3,11-7.1,19.7-10.5c18-7.1,31.7-6.2,42.8-7.4
			c13.6-1.4,32.3-7,54.4-25.4c3.6,25.8,6.7,52.7,9.2,80.7c4.4,50.7,6.1,98.6,5.9,143.1C874.1,621.3,803,550.5,732,479.7z"/>
		<path class="st1" d="M732,479.7c8.9,59.8,17.9,119.7,26.8,179.5c16.4,21.7,32.7,43.5,49.1,65.2c2.6,1.8,6.5,3.9,11.5,5
			c12.9,2.7,23.3-3.8,25.9-5.5c40.6-9.1,81.2-18.2,121.8-27.2c-8.4-72.4-16.8-144.9-25.2-217.3c-37.5,12.8-75.1,25.6-112.6,38.5
			c-0.8,0.6-8.8,6.4-18.3,3.4c-6.5-2-9.8-6.9-10.7-8.4C777.5,501.7,754.7,490.7,732,479.7z"/>
		<g>
			<g>
				<path d="M797.5,521.9c3.9,64.5,9.1,129,15.6,193.3c0.2,1.9,3.2,1.9,3,0c-6.5-64.3-11.7-128.8-15.6-193.3
					C800.4,520,797.4,519.9,797.5,521.9L797.5,521.9z"/>
			</g>
		</g>
		<g>
			<g>
				<path d="M826.2,553.1c2.7,42.3,4.4,84.7,5.2,127.1c0,1.9,3,1.9,3,0c-0.8-42.4-2.5-84.8-5.2-127.1
					C829.1,551.2,826.1,551.2,826.2,553.1L826.2,553.1z"/>
			</g>
		</g>
		<g>
			<g>
				<path d="M858.3,535.9c0.4,4.5,0.8,8.9,1.2,13.4c0.2,2.3,0.1,5,1,7.2c2.4,5.7,9.6,2.3,13.9,1.1c14.9-4.1,29.6-8.6,43.3-15.8
					c1.7-0.9,0.2-3.5-1.5-2.6c-10.5,5.5-21.7,9.4-33.1,12.8c-2.6,0.8-5.2,1.5-7.8,2.2c-2.3,0.6-5.4,2.2-7.8,2.1
					c-6.9-0.2-5.8-15.8-6.2-20.5C861.1,534,858.1,534,858.3,535.9L858.3,535.9z"/>
			</g>
		</g>
		<g>
			<g>
				<path d="M861.2,535.8c8.9-2.7,17.8-5.4,26.6-8.1c8.8-2.7,18-6.5,27.3-6.9c-0.5-0.5-1-1-1.5-1.5c-0.1,7.7,0.8,15.3,2.7,22.8
					c0.5,1.9,3.4,1.1,2.9-0.8c-1.9-7.2-2.7-14.5-2.6-22c0-0.8-0.7-1.5-1.5-1.5c-9,0.4-17.7,3.9-26.2,6.4c-9.5,2.9-19,5.8-28.5,8.7
					C858.6,533.5,859.3,536.4,861.2,535.8L861.2,535.8z"/>
			</g>
		</g>
	</g>
	<g id="fingers_right">
		<path class="st4" d="M739.5,562.5c-0.1,1.4-0.3,3.7,0.3,11c0.1,1.7,0.5,5.6,1.4,13.4c0.8,6.1,1.1,9.2,1.8,12.8
			c0.9,4.7,1.8,8.5,2.5,11.1c-2.4,2.6-2.3,6.4-0.3,8.2c1.6,1.5,4.3,1.8,6,0.6c1-0.7,1.6-2,1.8-6.4c0.4-8.4-1.6-9.5-0.6-14.7
			c0.7-3.7,1.9-4.7,1.6-8c-0.1-0.6-0.2-1.8-2-6c-3.1-7.5-4.1-7.4-4.4-10.2c-0.3-3,0.8-3.4,0.5-8.2c-0.1-2.8-0.6-4.8-0.7-5.3
			c-0.7-2.9-2.7-8.7-4.6-8.6C740.5,552.4,739.6,561.6,739.5,562.5z"/>
		<g>
			<g>
				<path d="M740.2,551.5c-2.2,4.3-3,9.2-1.7,14c0.8,3.2,3.1,7.5,7.1,6.8c3.4-0.6,4.1-4.5,4-7.3c-0.2-4.7-2.3-9-5.5-12.5
					c-1.3-1.4-3.4,0.7-2.1,2.1c1.7,1.8,3,3.9,3.8,6.2c0.4,1.3,0.7,2.8,0.8,4.2c0.1,2.1,0.5,2.7-2.1,2.7c-2.4-0.1-2.4-0.8-3.1-3
					c-0.3-1.2-0.5-2.5-0.5-3.8c-0.1-2.8,0.6-5.4,1.9-7.9C743.7,551.3,741.1,549.8,740.2,551.5L740.2,551.5z"/>
			</g>
		</g>
		<g>
			<g>
				<path d="M738.7,564.7c-1,7-0.4,13.8,2.4,20.3c1.7,4,4.7,9.3,9.5,10.1c3.6,0.6,5.3-1.7,4.8-5c-1-7.1-6.1-12.9-7.2-20.1
					c-0.3-1.9-3.2-1.1-2.9,0.8c0.5,3.2,1.5,6.1,2.8,9c0.6,1.4,6.9,12.7,1.1,11.5c-3.5-0.7-6.2-9.3-6.9-11.9c-1.3-4.6-1.4-9.3-0.7-14
					C741.9,563.6,739,562.8,738.7,564.7L738.7,564.7z"/>
			</g>
		</g>
		<g>
			<g>
				<path d="M739.3,580.7c0,6.4,1.1,17.1,6.7,21.3c1.8,1.4,4.2,1.3,6-0.2c2.3-2,2.2-5.1,1.9-7.9c-0.2-1.9-3.2-1.9-3,0
					c0.1,0.8,0.2,1.6,0.2,2.4c-2.5,2.9-4.2,3.2-5,1c-1.2-1-1.7-3.7-2.1-5.2c-1.2-3.7-1.7-7.5-1.6-11.4
					C742.3,578.7,739.3,578.7,739.3,580.7L739.3,580.7z"/>
			</g>
		</g>
		<g>
			<g>
				<path d="M741.7,591.3c-0.7,5.1-0.4,10.2,1.2,15.1c1,3.2,2.8,9,6.5,10.1c7.9,2.3,5.6-12.8,4.8-16.4c-0.4-1.9-3.3-1.1-2.9,0.8
					c0.6,2.8,0.9,5.6,0.8,8.4c0,1-0.1,2-0.4,3.1c-1.1-0.2-2.2-0.4-3.3-0.6c-1.1-0.8-1.7-3.4-2.1-4.6c-1.9-5.1-2.3-10.4-1.6-15.8
					C745,589.4,742,589.4,741.7,591.3L741.7,591.3z"/>
			</g>
		</g>
		<g>
			<g>
				<path d="M744.2,610.3c-0.4,3.4-0.4,9,3.1,11c3.6,2,5.9-1.4,6.4-4.5c0.3-1.9-2.6-2.7-2.9-0.8c-0.1,0.7-0.2,1.9-0.7,2.4
					c-1.1,1.1-2.2-0.4-2.5-1.5c-0.7-2.1-0.7-4.5-0.4-6.7C747.4,608.4,744.4,608.4,744.2,610.3L744.2,610.3z"/>
			</g>
		</g>
	</g>
	<g id="hand_left">
		<path class="st4" d="M989.5,615.4c-1.3-3.5-3.3-8.2-6-13.8c-1.1-2.2-3.7-7.5-7.6-13.9c-7-11.4-10-13.1-12.2-13.9
			c-0.4-0.1-6.1-2.1-8.1,0.2c-3.2,3.7,5.8,15.8,6.8,17.2c-2.7,0.5-6.9,1.3-12,2.1c-18,2.8-25.2,2.4-37.9,4.7
			c-14,2.5-20.3,1.9-21.6,5.6c-1.1,3,1.6,6.3,1.9,6.8c3.1,3.8,9.4,4.9,15.5,2.2c3.5-0.2,7-0.3,10.5-0.5c-0.4,2.5-0.7,6.1,0.3,10.3
			c0.8,3.4,1.8,3.8,4.1,9.4c2.7,6.7,2.2,8.1,4.4,11.2c2.5,3.5,5.6,5.3,7.2,6.1c7.5,4.2,15.5,2.7,30.8,0.7c5.3-0.7,13.8-1.8,24.6-2.9
			C990,636.4,989.7,625.9,989.5,615.4z"/>
		<path class="st3" d="M1080.6,404c-4.3,9.4,1.7,20.2,5.4,28c0.4,0.8,5.7,26.4,16.3,77.8c3.2,15.3,7.6,37.6,12.4,65.3
			c-8.9,5.4-18.7,10.6-29.6,15.6c-35.8,16.2-69.4,22.6-95.7,24.9c-1.3,2.6-4.2,9.3-3.1,17.9c1.4,11,8.2,17.7,10.1,19.4
			c10.7-3.1,26-7.6,44.3-13.2c84.3-25.8,102.5-35.1,108.1-51.3c2.2-6.5,0.6-8.7-4.2-33.7c-10.3-53.8-8.6-73.8-22.3-122.6
			c-7.5-26.7-12.9-38-21.8-39.7C1093.3,390.9,1084,396.5,1080.6,404z"/>
		<g>
			<g>
				<path d="M1005.6,614.1c-3,11.6-0.6,23.8,6.6,33.3c1.2,1.5,3.8,0,2.6-1.5c-6.8-9-9.1-20.1-6.3-31
					C1009,613.1,1006.1,612.3,1005.6,614.1L1005.6,614.1z"/>
			</g>
		</g>
		<g>
			<g>
				<path d="M990.9,615c-3.2-8.4-7-16.5-11.5-24.3c-3.7-6.4-7.9-12.9-13.9-17.5c-3.1-2.3-8.2-5.8-10.8-1c-2.9,5.5,3.6,15.2,6.5,19.7
					c1,1.6,3.6,0.1,2.6-1.5c-1.2-1.9-10.4-17.3-4-17.3c2.1,0,5.1,3.4,6.6,4.7c2.2,2.1,4.1,4.4,5.8,6.9c6.7,9.5,11.7,20.3,15.9,31.1
					C988.7,617.6,991.6,616.8,990.9,615L990.9,615z"/>
			</g>
		</g>
		<g>
			<g>
				<path d="M961.1,591.3c-12.4,0.4-24.8,1.5-37.2,3.3c-6.1,0.9-12.1,2-18.2,3.2c-4.6,1-11,1.4-15,4.1c-2.1,1.5-3.5,4.1-2.5,6.7
					c1.4,3.2,6.3,3.9,9.3,4.5c11.7,2.2,24.3,1.2,36.1,1.4c1.9,0,1.9-3,0-3c-9-0.1-18-0.1-27-0.5c-2.8-0.1-5.6-0.3-8.4-0.8
					c-1.1-0.2-4.2-0.4-5.1-1.3c-5.7-5.7,8.8-7.3,11.3-7.8c18.6-4,37.5-6.2,56.4-6.8C963,594.2,963,591.2,961.1,591.3L961.1,591.3z"
					/>
			</g>
		</g>
		<g>
			<g>
				<path d="M916.4,614.3c-1.6,4.9,1,9.7,5.3,12.2c6.4,3.6,15,1.7,21.9,1.2c1.9-0.2,1.9-3.2,0-3c-4.4,0.3-8.9,1-13.3,0.8
					c-5.6-0.2-13.3-3.3-11.1-10.4C919.9,613.2,917,612.4,916.4,614.3L916.4,614.3z"/>
			</g>
		</g>
		<g>
			<g>
				<path d="M919.5,626.2c1.4,11.9,14.4,12.5,23.7,11.2c1.9-0.3,1.1-3.2-0.8-2.9c-7.1,1-18.8,1.3-19.9-8.3
					C922.3,624.3,919.3,624.3,919.5,626.2L919.5,626.2z"/>
			</g>
		</g>
		<g>
			<g>
				<path d="M923.9,635.7c0.6,10.6,10.4,16.4,20.2,17.1c7.5,0.6,15.1-0.8,22.4-1.7c7.9-0.9,15.9-1.8,23.8-2.8c1.9-0.2,1.9-3.2,0-3
					c-11.7,1.4-23.4,2.9-35.1,4.1c-10.5,1.1-27.4,0.3-28.3-13.8C926.7,633.8,923.7,633.8,923.9,635.7L923.9,635.7z"/>
			</g>
		</g>
		<g>
			<g>
				<path d="M1029.6,611.8c-1,10.2,1.1,20.1,6.1,29.1c0.9,1.7,3.5,0.2,2.6-1.5c-4.7-8.6-6.6-17.8-5.7-27.6
					C1032.8,609.8,1029.8,609.9,1029.6,611.8L1029.6,611.8z"/>
			</g>
		</g>
		<g>
			<g>
				<path d="M1054.2,602.4c0.1,10.6,2.5,20.8,7,30.4c0.8,1.7,3.4,0.2,2.6-1.5c-4.3-9.2-6.4-18.8-6.6-28.9
					C1057.1,600.4,1054.1,600.4,1054.2,602.4L1054.2,602.4z"/>
			</g>
		</g>
		<g>
			<g>
				<path d="M1075,595.8c3.5,9.4,6.3,19,8.4,28.8c0.4,1.9,3.3,1.1,2.9-0.8c-2.1-9.8-4.9-19.4-8.4-28.8
					C1077.3,593.2,1074.4,594,1075,595.8L1075,595.8z"/>
			</g>
		</g>
		<g>
			<g>
				<path d="M1098,585.7c5.8,9.4,9,19.9,9.4,31c0.1,1.9,3.1,1.9,3,0c-0.4-11.6-3.7-22.6-9.8-32.5
					C1099.5,582.6,1096.9,584.1,1098,585.7L1098,585.7z"/>
			</g>
		</g>
		<g>
			<g>
				<path d="M1114.9,577.6c5.8-0.1,11,1.8,15.7,5.1c2.3,1.6,4.4,3.5,6.4,5.4c1,1,2,2.1,3,3.2c1.7,1.9,1.5,1.3,3.9,2.2
					c-1.8-0.7-2.6,2.2-0.8,2.9c0.2,0.1,0.3,0.1,0.5,0.2c0.5,0.2,1.1,0,1.5-0.4c1.1-1.2,0.9-2.1,0.2-3.4c-2.1-3.6-6.2-7.2-9.4-9.9
					c-6-5.1-13.1-8.5-21-8.4C1112.9,574.6,1112.9,577.6,1114.9,577.6L1114.9,577.6z"/>
			</g>
		</g>
		<g>
			<g>
				<path d="M1114.6,560.6c5.9-6.8,17.6-15.1,27.2-11.9c1.8,0.6,2.6-2.3,0.8-2.9c-10.6-3.6-23.5,5-30.1,12.6
					C1111.2,560,1113.3,562.1,1114.6,560.6L1114.6,560.6z"/>
			</g>
		</g>
		<g>
			<g>
				<path d="M1110.7,540.4c5.2-11.2,18.2-11.9,29-12.1c1.9,0,1.9-3,0-3c-11.8,0.2-25.9,1.5-31.5,13.6
					C1107.3,540.7,1109.9,542.2,1110.7,540.4L1110.7,540.4z"/>
			</g>
		</g>
		<g>
			<g>
				<path d="M1105.7,515.3c3.8-11,17.8-16.1,28.4-16.2c1.9,0,1.9-3,0-3c-12.1,0.1-27.1,6-31.3,18.4
					C1102.2,516.3,1105.1,517.1,1105.7,515.3L1105.7,515.3z"/>
			</g>
		</g>
		<g>
			<g>
				<path d="M1100.6,488.7c1.5-5.9,6.4-9.7,11.1-13.4c5.7-4.5,11.2-7.8,18.6-7.9c1.9,0,1.9-3,0-3c-7.6,0.1-13.4,3.2-19.4,7.7
					c-5.5,4.2-11.3,8.7-13.2,15.7C1097.2,489.7,1100.1,490.5,1100.6,488.7L1100.6,488.7z"/>
			</g>
		</g>
		<g>
			<g>
				<path d="M1095.1,462.9c6-10.7,16.8-17.8,29.1-18.8c1.9-0.2,1.9-3.2,0-3c-13.3,1.1-25.1,8.5-31.7,20.2
					C1091.6,463.1,1094.2,464.6,1095.1,462.9L1095.1,462.9z"/>
			</g>
		</g>
		<g>
			<g>
				<path d="M1091.1,437.7c3.1-4.1,6.9-7.4,11.4-9.9c2.1-1.2,4.4-2.1,6.7-2.8c1-0.3,2-0.6,3-0.8c0.7-0.2,1.4-0.3,2.1-0.3
					c1.3,0.1,2.2-0.5,2.5-1.9c-1.4,1.3,0.7,3.4,2.1,2.1c0.1-0.1,0.2-0.2,0.3-0.3c0.4-0.4,0.5-1,0.4-1.5c0-0.2-0.1-0.3-0.1-0.5
					c-0.1-0.5-0.6-0.9-1-1c-5-1.1-11.5,1.4-16,3.6c-5.6,2.7-10.1,6.7-13.9,11.6C1087.3,437.7,1089.9,439.2,1091.1,437.7
					L1091.1,437.7z"/>
			</g>
		</g>
		<path class="st10" d="M1100.8,392.3c2.7,9.7,6.2,23.2,9.7,39.4c6.1,28.3,5.5,33.9,12.9,86.9c6.1,42.9,8.5,53.6,0.6,65.4
			c-3.5,5.3-11.5,9.9-27.1,19.1c-21.1,12.3-36.1,21.1-58.6,28.4c-12,3.9-28.9,8.2-49.8,10.1c-3.9,0.6-8.9,1.2-14.8,1.7
			c-10.8,0.9-19.9,0.8-26.7,0.6c-5.6-0.2-12.3-0.7-20-1.7c2.1,2.4,5.6,5.8,10.6,8.1c8.7,4.1,17.1,3,31.7,1c5.3-0.8,12.5-2,20.9-4.2
			c2.1,2,4.2,4,6.4,5.9c13.3-4,33-9.9,57.2-17.2c130.1-39.3,29.9-10.5,46.7-15.4c6.6-1.9,20-5.8,34.3-15.4
			c7.6-5.1,12.4-9.9,14.3-16.5c1.5-5.3,0.4-9.6-0.9-15.4c-2.3-10.6-3.1-21.4-5.8-31.9c-4.4-17.3-1.7-15.9-8-53.6
			c-7.3-44.2-8.8-33.1-13-59.5c-0.6-3.7-1.8-11.7-6.9-20.3C1110.1,400.1,1104.7,395.2,1100.8,392.3z"/>
	</g>
	<g id="head">
		<path class="st11" d="M947.4,345.3c1.7,4.9,3.6,10,5.6,15.2c3.3,8.5,6.8,16.6,10.4,24.2c4.3-0.8,9.5-2.1,15.1-4.3
			c4.4-1.8,8.1-3.7,11.2-5.6c-2.3-12.7-4.6-25.3-6.9-38C971,339.6,959.2,342.4,947.4,345.3z"/>
		<g>
			<g>
				<path d="M959.4,375.4c11.5,4.1,22.6-1.6,29.6-10.7c1.2-1.5-0.9-3.6-2.1-2.1c-6.4,8.3-16.1,13.8-26.7,10
					C958.3,371.8,957.6,374.7,959.4,375.4L959.4,375.4z"/>
			</g>
		</g>
		<g>
			<g>
				<path d="M954.2,364.6c11.7,1.7,26.5,2.7,33-9.5c0.9-1.7-1.7-3.2-2.6-1.5c-5.8,10.9-19.2,9.6-29.6,8.1
					C953.1,361.4,952.3,364.3,954.2,364.6L954.2,364.6z"/>
			</g>
		</g>
		<g>
			<g>
				<path d="M949.1,353c12.1,3.5,25.1,1.1,35.1-6.5c1.5-1.2,0-3.8-1.5-2.6c-9.5,7.2-21.4,9.5-32.8,6.2
					C948.1,349.6,947.3,352.5,949.1,353L949.1,353z"/>
			</g>
		</g>
		<polygon class="st9" points="1007.8,226.1 1057.6,226.1 1068.2,320 1019.2,345.3 		"/>
		<polygon class="st3" points="839.6,244.8 855.9,345.3 1019.2,345.3 1007.8,226.1 		"/>
		<polygon class="st3" points="846.8,252.3 861.5,339.4 1007.8,339.4 997.5,236 		"/>
		<ellipse transform="matrix(0.866 -0.5 0.5 0.866 -27.0498 479.9881)" class="st9" cx="882.1" cy="290.5" rx="3.9" ry="7"/>
		<ellipse transform="matrix(0.866 -0.5 0.5 0.866 -15.4504 513.666)" class="st9" cx="950.8" cy="285.7" rx="3.9" ry="7"/>
		<g>
			<g>
				<path d="M909.4,307.5c2.5,3.4,5.2,6.7,8,9.8c0.8,0.9,2.2,0.3,2.5-0.7c1.4-4.2,3.1-8.3,5.1-12.2c0.8-1.7-1.7-3.3-2.6-1.5
					c-2,4.2-3.8,8.5-5.4,13c0.8-0.2,1.7-0.4,2.5-0.7c-2.7-2.9-5.2-6-7.6-9.2C910.8,304.5,908.2,306,909.4,307.5L909.4,307.5z"/>
			</g>
		</g>
	</g>
</g>
</svg>
