<svg xmlns="http://www.w3.org/2000/svg" viewBox="0 0 519.66 565.67"><title>giving back</title><g id="background"><path d="M38.48,481.09c22-.14,43.65,3,65.33,6.11,20.75,3,41.54,5.35,62.48,6.61,43.22,2.61,86.58,1.4,129.78-1.16,24.26-1.43,48.5-3.3,72.74-5.16.95-.08,1-1.58,0-1.5-86.93,6.7-174,12.63-260.76.31C85,483,61.86,479.44,38.48,479.59a.75.75,0,0,0,0,1.5Z" transform="translate(-25.08 -24.38)" style="fill:#e8e8e8"/><path d="M149.71,476.85c95.63.92,190.27-14.93,285.6-19.87,27-1.4,54-1.87,81-.9,1,0,1-1.46,0-1.5-95.62-3.45-190.4,11.85-285.57,18.19-27,1.8-54,2.84-81,2.58a.75.75,0,0,0,0,1.5Z" transform="translate(-25.08 -24.38)" style="fill:#e8e8e8"/><path d="M25.47,421.1c30.05,12.85,63.34,5.29,94.42,1.16q54.48-7.25,109.46-9.6,31.38-1.34,62.8-1.07a.75.75,0,0,0,0-1.5q-53.49-.42-106.88,3.75-26.91,2.12-53.7,5.42c-16.53,2-33,4.87-49.54,6.5-18.84,1.85-38.14,1.6-55.8-6-.88-.37-1.64.92-.76,1.3Z" transform="translate(-25.08 -24.38)" style="fill:#e8e8e8"/><path d="M289.34,413.79c65,3.47,129.57-10.24,194.57-6.58a283.55,283.55,0,0,1,55,8.23.75.75,0,0,0,.4-1.45c-63.44-16.33-128.95-5.69-193.24-2.12a521,521,0,0,1-56.72.42c-1-.05-1,1.45,0,1.5Z" transform="translate(-25.08 -24.38)" style="fill:#e8e8e8"/><path d="M115.4,544.89c21.25,9.74,44.66,11,67.65,9.1,25.35-2.11,50.5-7.12,75.55-11.36,54.55-9.23,109.29-18.62,164.65-21.09,31-1.38,62.06-.49,92.82,3.71.94.13,1.35-1.31.39-1.44-52.9-7.24-106.4-4.54-159.21,2.05-53.11,6.64-105.5,17.9-158.54,24.91-27.63,3.66-56.64,4.7-82.55-7.18-.87-.39-1.64.9-.76,1.3Z" transform="translate(-25.08 -24.38)" style="fill:#e8e8e8"/><path d="M61.14,262.72c16,2.86,32.14,1.16,48.16-.85,17.18-2.16,34.38-4.07,51.64-5.54q51.93-4.44,104.11-4.36,29.51.06,59,1.56c1,.05,1-1.45,0-1.5a1203.89,1203.89,0,0,0-205.14,7.14c-19,2.31-38.24,5.51-57.34,2.11-.94-.17-1.35,1.27-.4,1.44Z" transform="translate(-25.08 -24.38)" style="fill:#e8e8e8"/><path d="M300.62,194.93c63,10.55,125.39-8.92,188.13-12.29a258.66,258.66,0,0,1,55,2.43c.94.15,1.35-1.29.39-1.44C481.1,173.46,418.81,193,356,196.18a255,255,0,0,1-55-2.69c-.94-.16-1.35,1.28-.4,1.44Z" transform="translate(-25.08 -24.38)" style="fill:#e8e8e8"/><path d="M40.91,100.7c27.71,9.16,56.94,5,85.33,2.23a478.91,478.91,0,0,1,92.66-.19c1,.1.95-1.41,0-1.5a475,475,0,0,0-90.81,0c-28.86,2.77-58.59,7.32-86.78-2-.92-.31-1.31,1.14-.4,1.44Z" transform="translate(-25.08 -24.38)" style="fill:#e8e8e8"/><path d="M204.23,68.48c39,9,79.1,8.15,118.81,6.65,41.49-1.58,82.8-2,124.27.34,23.71,1.32,47.37,3.27,71,5.6,1,.1,1-1.41,0-1.5C477,75.49,435.5,72.6,394,72.15c-40.26-.43-80.44,3-120.68,2.41-23.08-.34-46.13-2.31-68.65-7.53-.94-.21-1.34,1.23-.4,1.45Z" transform="translate(-25.08 -24.38)" style="fill:#e8e8e8"/><circle cx="51.03" cy="111.86" r="3.38" style="fill:#461eb8"/><circle cx="137.94" cy="30.55" r="5.42" style="fill:none;stroke:#461eb8;stroke-miterlimit:10"/><circle cx="470.78" cy="222.99" r="5.77" style="fill:#461eb8"/><circle cx="55.74" cy="298.58" r="4.71" style="fill:none;stroke:#461eb8;stroke-miterlimit:10"/><circle cx="426.04" cy="91.22" r="4.97" style="fill:none;stroke:#461eb8;stroke-miterlimit:10"/><circle cx="97.35" cy="157.57" r="4.47" style="fill:#ec615b"/><circle cx="464.8" cy="123.66" r="8.1" style="fill:#ec615b"/><circle cx="373.31" cy="26.47" r="9.5" style="fill:none;stroke:#ec615b;stroke-miterlimit:10"/><circle cx="190.27" cy="309.61" r="3.49" style="fill:none;stroke:#ec615b;stroke-miterlimit:10"/></g><g id="girl"><g id="leg_right" data-name="leg right"><path d="M311,414.42l39.79,5.22c4.6,10.43,11.7,26.32,20.7,45.6,18.79,40.22,28.1,57.17,25.66,58.74-3.28,2.11-24.7-25.22-30.59-32.72a468.86,468.86,0,0,1-30.1-43.16l-23.09,1.75A65.12,65.12,0,0,0,311,414.42Z" transform="translate(-25.08 -24.38)"/><path d="M233.06,349.25c-6.34.23-14.89.55-25,.95-51.89,2.1-71.33,3.62-93.65,10.78-10.31,3.31-21.15,7.8-30.09,17.78A43.49,43.49,0,0,0,73.5,398.6c-2.34,10.4.24,18.86,2.21,25.32a59,59,0,0,0,12.11,22.53c2.73,3.1,10.53,11.23,28.51,17.51,17.51,6.12,32,6,47,5.94,70.9-.42,68.4-.27,71.62-.44,19.24-1,44.69-2.93,74.74-6.76a75.89,75.89,0,0,0,3.63-12.85c2-10.36.63-17.55.14-26.35a147.84,147.84,0,0,1,1.19-28.27l-5-41.36Z" transform="translate(-25.08 -24.38)" style="fill:#fff"/><path d="M170.66,394.07a157.85,157.85,0,0,1,44.94,12.08C242,417.66,272.89,440,269.14,450.32c-1.25,3.45-6.51,6-49.42,4.87-57.11-1.53-86-2.54-104.07-15-8.87-6.11-26.6-20.91-37.24-53.72A56.32,56.32,0,0,0,73.92,417c2.48,18.08,13.31,29.48,18,33.77,11.54,10.56,24.24,13.2,39,16.27,12.14,2.52,21.3,2.75,34.49,2.89,30.8.34,46.2.51,62.14-.2,21.32-.94,49.19-2.88,82.12-7.07A90.79,90.79,0,0,0,314,446.25a75.64,75.64,0,0,0,1.16-15.36c-.82-13.54-9.6-24.11-15.05-29.56Z" transform="translate(-25.08 -24.38)" style="fill:#9e9e9e;opacity:0.24"/><path d="M73.48,404.73c1.93-36,46.57-47,75.47-50.46,16.27-1.94,32.7-2.31,49.06-2.93l53.55-2c1,0,1-1.54,0-1.5l-59.5,2.26c-17.54.67-35.17,1.2-52.53,4C112,358.56,73.77,371.31,72,404.73c0,1,1.45,1,1.5,0Z" transform="translate(-25.08 -24.38)"/><path d="M71.57,403.68c.55,14.18,4.66,28.41,13.09,40,9.08,12.43,21.94,19,36.72,22.36,19,4.32,38.72,4.75,58.13,5.07q30.66.49,61.29-1.16,34.57-1.86,68.9-6.46c.95-.13,1-1.63,0-1.5a880,880,0,0,1-112.39,7.72c-18.86.08-37.92,0-56.68-2-17.24-1.88-35.86-5.28-48.72-17.86-12.25-12-18.19-29.2-18.84-46.09,0-1-1.54-1-1.5,0Z" transform="translate(-25.08 -24.38)"/><path d="M170.66,394.82,299.42,402c1,.05,1-1.45,0-1.5l-128.76-7.2c-1-.05-1,1.45,0,1.5Z" transform="translate(-25.08 -24.38)"/><path d="M299.71,402c9.39,5.48,13.47,17.53,14.58,27.79,1.14,10.46-.78,20.88-3.67,30.9a.75.75,0,0,0,1.44.4c3.27-11.34,5.26-23.22,3.22-35-1.66-9.62-6-20.28-14.81-25.41a.75.75,0,0,0-.76,1.3Z" transform="translate(-25.08 -24.38)"/></g><g id="leg_left" data-name="leg left"><path d="M291.43,474.25,255.64,513a155.36,155.36,0,0,0,8.26,16.51c22.51,39.08,59.77,64.21,64.31,60.05,3.1-2.85-6.94-21.47-16.57-33.65-6.77-8.55-12.29-12.58-16.06-22.39a48.78,48.78,0,0,1-3-20.52l20.53-18.74-10.83-10Z" transform="translate(-25.08 -24.38)"/><path d="M341.55,346.49c4.48-5.08,11.54-12.74,20.84-21.4,15.68-14.59,33.89-31.23,61.06-41.55,25.85-9.82,38.74-5.92,42.05-4.8s12.1,4.23,18.19,12.71,6.19,17.48,6.2,23.58c0,18.07-7.91,31.74-10.48,36.05C455.3,391.54,419,424.9,419,424.9c-17.91,16.48-45.16,42-79.7,76.09a53.28,53.28,0,0,1-20.1-3.65c-10-4-16.1-10-21.75-15.74a94.73,94.73,0,0,1-17.95-25.74l30.84-43.29q-3.3-28.08-6.59-56.16c3.87-3.42,15-12.26,29.73-11.37A35.24,35.24,0,0,1,341.55,346.49Z" transform="translate(-25.08 -24.38)" style="fill:#fff"/><path d="M477.84,285.24A135.25,135.25,0,0,1,476,311.51C463.61,383.63,395.5,423.29,381.48,431c-39.72,21.83-78.35,25.12-101.94,24.86a133,133,0,0,0,8.57,13.67c2.59,3.64,8.62,12.09,15.35,17.9,4.22,3.64,15.4,12,35.88,13.56,14.53-12.29,33.15-28.77,54-49.28,8.81-8.68,15.73-15.94,29.56-30.46,28.2-29.61,40.25-43.72,51.54-61.31a103.15,103.15,0,0,0,13.91-33c2.76-12.3,1.67-18.76.86-22.12A41.38,41.38,0,0,0,477.84,285.24Z" transform="translate(-25.08 -24.38)" style="fill:#9e9e9e;opacity:0.21"/><path d="M342.08,347a263.67,263.67,0,0,1,63.28-53c21.49-12.83,55.69-27.91,76-4.35,9.69,11.25,9,27.45,5.3,40.92a114.57,114.57,0,0,1-18.53,37.26c-9,12.26-19.53,23.4-29.68,34.69C429,413,419.52,423.4,409.83,433.62c-22.3,23.51-45.66,46-71.05,66.2-.76.6.31,1.66,1.06,1.06,24.67-19.59,47.43-41.41,69.15-64.2,11-11.52,21.71-23.29,32.34-35.13,10.23-11.4,20.83-22.66,29.68-35.19,13.58-19.22,28.51-51.36,14.19-74-14.5-22.93-45.58-17.69-66.12-7.61-29.73,14.6-56.34,36.33-78.06,61.2-.64.72.42,1.79,1.06,1.06Z" transform="translate(-25.08 -24.38)"/><path d="M388.83,325.75c-40.59,39.65-81.13,80.39-109.94,129.73a.75.75,0,0,0,1.3.76c28.75-49.24,69.2-89.87,109.7-129.43.69-.68-.37-1.74-1.06-1.06Z" transform="translate(-25.08 -24.38)"/><path d="M279.44,456.43c12.33,22.69,31.4,46.49,59.9,45.31,1,0,1-1.54,0-1.5-28,1.16-46.52-22.34-58.61-44.57-.46-.84-1.75-.09-1.29.76Z" transform="translate(-25.08 -24.38)"/></g><g id="torso"><path d="M211.27,136.93a192.32,192.32,0,0,0-8.84,34.6c-2.78,17.6-4.69,45.77,17.35,139.35,4,16.92,7.46,30.49,9.55,38.51a137.14,137.14,0,0,0,40.82,9.06c35.44,2.28,62.85-10,75.86-17a216.92,216.92,0,0,1-.31-48c3.68-35,14-49.87,18.46-77.79,2.73-17.14,3.83-43-6.15-76.67Z" transform="translate(-25.08 -24.38)" style="fill:#ec615b"/></g><g id="hand_right" data-name="hand right"><path d="M211.27,136.93a25.25,25.25,0,0,0-8.47.93c-8.42,2.44-13.14,8.78-16.75,13.78C177.71,163.19,175,175.52,174,183.38a70.88,70.88,0,0,0-10.42,12.51,76.12,76.12,0,0,0-8.9,19.51,78.1,78.1,0,0,0-2.27,9.82c-14.28,5.79-24.6,8.19-31.88,9.27-3,.45-9.57,1.26-12.72,6.07-.21.32-2.68,4.19-1.18,7.21,1.1,2.23,3.86,3,9.46,3.79,12.12,1.68,17.48.53,25.95,2.19a52.57,52.57,0,0,1,9.77,2.93,13.47,13.47,0,0,1,.67,5.35c-.48,5.62-4.67,9.43-6.43,11.1-2.92,2.77-9.08,11.11-21.4,27.79-4.52,6.11-7.11,10.06-9.56,15.19a77.26,77.26,0,0,0-4.33,11.26,114.34,114.34,0,0,0,16.14,62.06,35.9,35.9,0,0,0,4-6.05c1.81-3.44,3.76-8.51,4.29-18.55a96.3,96.3,0,0,0-2.34-26.39,35.78,35.78,0,0,1,2.77-9.49,38.25,38.25,0,0,1,15.21-16.8,93.61,93.61,0,0,0-10.78,38.55,116.08,116.08,0,0,0,7.15,17A118,118,0,0,0,177,404.24,19.1,19.1,0,0,0,186,397c3.18-5,2.86-10.05,2.65-13.48-.36-5.77-2.6-10.65-7.07-20.19-1.91-4.07-3.61-7.35-4.75-9.49l5.87-10.56a26,26,0,0,0,1.53,11.5c1.52,4,2.95,4.5,7.67,10.9,6.65,9,6.8,12.06,11.94,16.15a29.42,29.42,0,0,0,7.95,4.51,21.9,21.9,0,0,0,.65-8.76c-.78-5.82-3.67-8.17-9.49-18.6-4.8-8.58-5.08-11-5.15-12.27-.26-4.8,1.64-8.25,4.12-13,2.66-5.11,6.41-12.55,10.84-22.23a70.17,70.17,0,0,0,5.95-22.16c2-20.81-6-36.89-9.83-43.56a151.85,151.85,0,0,0,3.07-16.56,158,158,0,0,0,1.28-19.78C213.31,196.36,212.77,170.43,211.27,136.93Z" transform="translate(-25.08 -24.38)" style="fill:#fff"/><path d="M209,136.9a35.49,35.49,0,0,0-13.1,12.18c-7.69,12.26-4.91,25.19-4.25,28-2.75,1.46-8.62,5.12-11.33,12-4,10.3.6,23.65,12,32.23a88,88,0,0,0-16,.65c-15.92,2.11-26.64,8-36.44,13.52-8.13,4.57-12.17,7-12,9.91.27,6.45,19.1,10.34,23.91,11.27-14.25-4.18-24.08-4.85-30.78-4.54-2.72.12-9,.6-12.49-3.28-.36-.39-2.84-3.18-2.23-6.11,1-4.81,9.24-6.27,22.66-10.09,5.88-1.66,14.16-4.18,24.08-7.79a71.3,71.3,0,0,1,22.31-43.21,48.71,48.71,0,0,1,1.06-10.06,51.94,51.94,0,0,1,7.09-16.85c4.39-7.31,7.09-11.8,12.75-14.88A25.81,25.81,0,0,1,209,136.9Z" transform="translate(-25.08 -24.38)" style="fill:#9e9e9e;opacity:0.18"/><path d="M152.48,262a216.65,216.65,0,0,1-13.7,20.64c-7,9.38-15.48,19-23,32.21a37.48,37.48,0,0,0-5,14.12c-.49,3.73-.25,6.75.4,11.54,1.23,8.9,2.19,15.89,5.63,26.91,4.41,14.09,6.89,22,10.14,22,4.24-.07,7.25-13.68,8-21,.6-5.54,1.55-14.36-3.49-21.85-3-4.45-5.18-4.12-7.14-7.45-4.87-8.22,2.39-20.65,7.14-29.48A347.82,347.82,0,0,0,152.48,262Z" transform="translate(-25.08 -24.38)" style="fill:#9e9e9e;opacity:0.18"/><path d="M150.33,313.16a46.13,46.13,0,0,0-3.09,23.58,44.91,44.91,0,0,0,4.17,13.7,17.35,17.35,0,0,0,9.23,6.55c7.85,2.23,14.24-2.25,15.08-2.85a91.77,91.77,0,0,1,6.6,10.51c3.24,6.06,5.18,9.68,6,15A27.75,27.75,0,0,1,186.77,395a26.64,26.64,0,0,1-8.86,11.16,144.47,144.47,0,0,1-14.79-15.24,121.07,121.07,0,0,1-19.35-30.46c-1.72-4-2.92-7.35-3.7-9.73a94.17,94.17,0,0,1,10.26-37.54Z" transform="translate(-25.08 -24.38)" style="fill:#9e9e9e;opacity:0.18"/><path d="M192.46,330.51a50.45,50.45,0,0,0-2.64,13.38c-.37,6.43-.67,11.6,2.69,14.29s8.47,1.43,10.4.84a37.75,37.75,0,0,1,8.84,27.36,40.08,40.08,0,0,1-10.31-7.65c-1.8-1.87-2.29-2.76-7.74-10.12-5.94-8-5.81-7.58-6.6-8.9a35.45,35.45,0,0,1-4.67-17Q187.44,336.63,192.46,330.51Z" transform="translate(-25.08 -24.38)" style="fill:#9e9e9e;opacity:0.18"/><path d="M211.27,136.18c-23.83-1.42-34.38,28.21-38,47-.18.94,1.26,1.35,1.44.4,3.5-18.18,13.49-47.27,36.55-45.9,1,0,1-1.45,0-1.5Z" transform="translate(-25.08 -24.38)"/><path d="M185.11,177.32c-9.57,1.49-16.17,9.11-21.27,16.78A80.73,80.73,0,0,0,151.68,225c-.16.95,1.28,1.35,1.45.4a80,80,0,0,1,10.22-27.75c5.05-8.36,11.91-17.3,22.16-18.91,1-.14.55-1.59-.4-1.44Z" transform="translate(-25.08 -24.38)"/><path d="M187,222.86a55.58,55.58,0,0,0-19.9-1.31c-7.1.86-13.32,3.53-19.92,6.09s-13.6,3.58-20.61,4.84c-5.88,1.05-12.74,2.28-17.58,6.05-2.77,2.16-5,5.6-3.27,9.11,1.61,3.28,5.9,4.17,9.15,4.56,13.21,1.56,32.25-1.36,42.08,9.64.65.72,1.71-.35,1.06-1.06-5.86-6.56-14.58-7.91-22.94-8.59-6-.49-12-.8-18-1.31a28.49,28.49,0,0,1-4.61-.58c-3.08-.79-3.3-1.07-4.3-4.45-1.13-3.8-.55-4.72,2.84-6.91a24.45,24.45,0,0,1,5-2.31c10.82-3.95,22.5-3.89,33.27-8.26,12.29-5,24.12-7.26,37.26-4.07.94.23,1.34-1.22.4-1.44Z" transform="translate(-25.08 -24.38)"/><path d="M151.16,257.06c3.36,7.06-6.91,17.38-10.88,22.49-3.74,4.81-7.59,9.53-11.31,14.36-7.41,9.59-14.2,19.58-18.63,30.93-.35.9,1.1,1.29,1.45.4,5.67-14.52,15.35-26.69,24.94-38.79,4.15-5.22,8.28-10.45,12.09-15.93,3-4.29,6.11-9,3.63-14.22-.41-.87-1.7-.11-1.29.76Z" transform="translate(-25.08 -24.38)"/><path d="M110.09,324.79a126.9,126.9,0,0,0,14.44,63.48c.45.86,1.74.1,1.3-.76a125.21,125.21,0,0,1-14.24-62.72c0-1-1.46-1-1.5,0Z" transform="translate(-25.08 -24.38)"/><path d="M162.06,301.5c-10.29,9-22.65,17.59-28.47,30.34-.4.88.9,1.64,1.3.76,5.74-12.59,18.06-21.19,28.23-30,.73-.63-.33-1.69-1.06-1.06Z" transform="translate(-25.08 -24.38)"/><path d="M133.19,332.4c-1.56,3.47-.78,7.07-.36,10.75.6,5.33,1.32,10.65,1.56,16,.48,10.54-1.09,21.38-8,29.74-.61.74.45,1.8,1.06,1.06,5.21-6.29,7.69-13.94,8.36-22a85.13,85.13,0,0,0-.4-15.39c-.55-5.55-3.27-14.14-.9-19.4.39-.87-.9-1.64-1.3-.76Z" transform="translate(-25.08 -24.38)"/><path d="M203.87,239.85a71,71,0,0,1,14.35,44.64c-.48,17.93-9.2,33.2-17,48.86-.43.86.86,1.62,1.29.75,7.91-15.91,16.71-31.4,17.19-49.61a72.35,72.35,0,0,0-14.55-45.39c-.58-.76-1.88,0-1.3.75Z" transform="translate(-25.08 -24.38)"/><path d="M150.21,311.78a93.65,93.65,0,0,0-10.71,38.85c-.06,1,1.44,1,1.5,0a92,92,0,0,1,10.5-38.1c.45-.85-.84-1.61-1.29-.75Z" transform="translate(-25.08 -24.38)"/><path d="M139.35,350.9a118.24,118.24,0,0,0,37.13,53.87c.75.61,1.81-.45,1.07-1.06A116.81,116.81,0,0,1,140.8,350.5c-.31-.91-1.76-.52-1.45.4Z" transform="translate(-25.08 -24.38)"/><path d="M194.48,327.14c-7.39,8.22-14.67,16.53-19.41,26.62-.41.87.89,1.63,1.3.76,4.68-10,11.86-18.2,19.17-26.32.65-.71-.41-1.78-1.06-1.06Z" transform="translate(-25.08 -24.38)"/><path d="M179.4,323c-6.24,8.23-12.94,17.3-15.69,27.4a.75.75,0,0,0,1.45.4c2.7-9.94,9.38-18.93,15.54-27.05.58-.76-.72-1.51-1.3-.75Z" transform="translate(-25.08 -24.38)"/><path d="M163.65,350.6c.77,8.43,6.1,14.78,10.23,21.83,5.58,9.51,9.05,20.46,5.09,31.25-.33.9,1.12,1.3,1.45.4,3-8.28,2-17-1.45-25-4.07-9.6-12.84-17.83-13.82-28.52-.09-1-1.59-1-1.5,0Z" transform="translate(-25.08 -24.38)"/><path d="M175.05,353.6c4.3,7.42,10.09,15.17,12,23.64a31.73,31.73,0,0,1-4.62,24.52c-.53.81.77,1.56,1.29.75a33.23,33.23,0,0,0,5.32-22.63c-1.32-9.93-7.85-18.58-12.75-27a.75.75,0,0,0-1.29.76Z" transform="translate(-25.08 -24.38)"/><path d="M201.62,332.61c-3.41,7.67-6.34,13.95-2.41,22.1,2.07,4.28,5.22,7.88,7.64,12,3.34,5.58,4.36,11.82,5.21,18.17.13.94,1.63,1,1.5,0-1.11-8.35-2.88-15.4-7.7-22.41-2.62-3.8-5.6-7.62-6.78-12.17-1.62-6.21,1.4-11.4,3.83-16.89.39-.87-.9-1.64-1.29-.75Z" transform="translate(-25.08 -24.38)"/><path d="M181.91,343.32c-.31,4.47-.36,8.67,2.06,12.58,3,4.84,6.65,9.37,10,14,4.5,6.3,9.2,15.77,17.63,17.21.94.16,1.35-1.29.39-1.45-8.4-1.43-13.29-11.72-17.82-18.05-2.56-3.57-5.18-7.11-7.67-10.72-3-4.31-3.41-8.46-3.05-13.57.07-1-1.43-1-1.5,0Z" transform="translate(-25.08 -24.38)"/><path d="M191.8,233.5A37.7,37.7,0,0,1,188,269.31c-.54.79.76,1.55,1.3.75a39,39,0,0,0,3.94-37c-.36-.88-1.82-.5-1.45.4Z" transform="translate(-25.08 -24.38)"/><path d="M211.1,207.23a78.28,78.28,0,0,1-3.24,35.66c-.3.92,1.15,1.32,1.45.4a79.93,79.93,0,0,0,3.24-36.46c-.13-1-1.58-.55-1.45.4Z" transform="translate(-25.08 -24.38)"/></g><g id="hand_left" data-name="hand left"><path d="M360.06,143a31.45,31.45,0,0,1,16,4.76c6.68,4.27,9.69,10.12,13.51,17.76a84.59,84.59,0,0,1,7.74,23.93,71.83,71.83,0,0,1,9.94,11.77,73.83,73.83,0,0,1,11.65,30.08,50,50,0,0,0,10.56,5c5.37,1.81,7.34,1.43,16.76,3.26,11.75,2.28,14.79,4.07,16.85,6.62,1,1.2,3,3.66,2.31,6-1.25,4.5-11.33,5.4-18.14,6-13.45,1.2-20.15-1.2-25.48,3.62a13.49,13.49,0,0,0-3.19,4.42,103.11,103.11,0,0,0,7.16,13.6,108.06,108.06,0,0,0,13,16.76c5.92,6.46,13.75,16.92,21.7,34.26a121.63,121.63,0,0,1-.18,13.54A130.52,130.52,0,0,1,458,361.25c-3.22,15.16-10,28.06-13.56,34.27a39.06,39.06,0,0,1-6.67-12.93c-.95-3.28-1.7-7.58-.66-24.57.86-14,1.56-14.21.89-17.45-1.19-5.69-5-13-16.46-20.31a92.91,92.91,0,0,1,9.73,36.53,116.09,116.09,0,0,1-9.38,21.09A118.57,118.57,0,0,1,393,411.55a17,17,0,0,1-4.82-3.32c-5.64-5.57-5.54-13.64-5.49-17.67.1-7.84,2.8-13.61,5.28-18.93a67.11,67.11,0,0,1,7.1-11.83c-4.06-8.73-5.72-10.61-6.43-10.38-1,.33.55,4.86-.92,10.35-1.09,4.08-2.74,4.51-7.78,11.36-2.8,3.81-7.24,10.4-13,17.38-1.12,1.36-3.23,3.88-5.81,3.66a4.8,4.8,0,0,1-2.68-1.24,34.93,34.93,0,0,1,2.27-12.21c1.49-3.81,3.61-7.11,7.4-13,3.48-5.41,4.52-6.44,5-9.17.62-3.34-.13-6.17-1.48-10.05a120.75,120.75,0,0,0-7.36-16.88c-.54-1-6.31-11.84-9.19-21.19A70.26,70.26,0,0,1,353.29,277a75.94,75.94,0,0,1,9.86-27.53,64.62,64.62,0,0,1-2.62-8.09,68,68,0,0,1-1.73-21.8c1.17-18.5-2.75-20.31-2.16-43.76A213,213,0,0,1,360.06,143Z" transform="translate(-25.08 -24.38)" style="fill:#fff"/><path d="M357.84,142.35a35.16,35.16,0,0,1,15.4,12.77c8.3,12.6,5.11,26.18,4.51,28.55a120.2,120.2,0,0,1,10.52,12.4c5.74,7.78,8.62,11.79,9,17.28.17,2.38.12,8-4.79,14.91a31.42,31.42,0,0,1,17.19,6.5c2.65,2.09,7.75,6.1,9.39,13.15,2.34,10-4.21,18.3-5.19,19.49,2.47,4.66,6.5,12,11.95,20.71,17.37,27.72,30.77,39.87,27.05,46.2-1.22,2.08-4.71,4.27-15.87,2.93a41,41,0,0,1,1.24,7.29c.45,5.9-.55,9.88-1.16,13.49a66.65,66.65,0,0,0,.08,22.14c1.2,6.08,4.48,16.13,8,16,.84,0,2.67-.68,7.44-16.37,4.23-14,6.42-25.46,6.62-25.42a10.5,10.5,0,0,1-.43,2.72c-.28,0,.7-12.14,1.77-24.59a152.23,152.23,0,0,0-14.8-25.24c-12-16.58-18.05-24.86-19.16-25.92-3.44-3.31-4.41-8.49-7.13-12.4a4.7,4.7,0,0,1-1.05-3.26c.28-2.05,2.45-3.32,3.38-3.84,7.7-4.36,26.11-4,29.56-3.91,2.89.07,6.64.21,10-2.15.44-.31,4.22-3.06,4-6.26-.08-.94-.63-3.73-9.85-7.63-9.43-4-15.1-3.7-25.56-6.6a96.61,96.61,0,0,1-11.47-3.94,64.09,64.09,0,0,0-2.46-12.42,67.78,67.78,0,0,0-18.61-29.47,96,96,0,0,0-5.63-19.37,56.93,56.93,0,0,0-6.62-12.65c-2.38-3.35-5.14-7.22-10-10.34A31.4,31.4,0,0,0,357.84,142.35Z" transform="translate(-25.08 -24.38)" style="fill:#9e9e9e;opacity:0.27"/><path d="M369.06,339.08c2.53,2.08,5.67,5.39,6.32,9.93.81,5.56-2.58,9.81-.91,11.21,1.38,1.15,5.09-.58,7.28-2.73,5-4.9,3.19-13.07,2.94-14.12a15.7,15.7,0,0,1,4.16,9.27c.27,3.66-1,6.39-2.6,9.67-2,4.19-3.24,4.64-8.85,12.39-2.24,3.1-3,4.38-6.13,8.57s-4.57,6-7.1,7.55a19.41,19.41,0,0,1-6.06,2.43A64,64,0,0,1,363,374.76c4.52-10.4,9.7-14.31,10-22.42A23.61,23.61,0,0,0,369.06,339.08Z" transform="translate(-25.08 -24.38)" style="fill:#9e9e9e;opacity:0.22"/><path d="M416.84,314c-.33.16,2.13,4.62,4.37,11.8,3.24,10.4,8.39,26.92,1.28,34.13-7.66,7.76-25.67.77-26.88.29a56,56,0,0,0-9.59,16c-1.86,4.76-3.75,9.6-3.32,15.8.67,9.45,6.32,16.09,9.08,18.91a70.09,70.09,0,0,0,9.83-6.95c1.66-1.4,8.22-7.07,16.09-19.34a133.7,133.7,0,0,0,13.55-27.84,80.64,80.64,0,0,0-3.12-19.07C424.22,324.2,417.37,313.76,416.84,314Z" transform="translate(-25.08 -24.38)" style="fill:#9e9e9e;opacity:0.25"/><path d="M360.06,143.77c23.05-1.37,33.05,27.72,36.54,45.9.19,1,1.63.55,1.45-.4-3.61-18.79-14.16-48.42-38-47-1,.06-1,1.56,0,1.5Z" transform="translate(-25.08 -24.38)"/><path d="M385.82,184.86c10.24,1.6,17.11,10.55,22.16,18.91a80.11,80.11,0,0,1,10.22,27.75c.16.95,1.61.54,1.44-.4a80.81,80.81,0,0,0-12.15-30.92c-5.09-7.69-11.71-15.29-21.28-16.79-.94-.15-1.35,1.3-.39,1.45Z" transform="translate(-25.08 -24.38)"/><path d="M384.77,230.4c13.13-3.19,25-.93,37.26,4.06,10.76,4.38,22.48,4.25,33.27,8.26,2.93,1.09,7.5,2.83,8.83,6,2.81,6.72-5.17,7.81-8.89,8.16-6.3.59-12.63.85-18.94,1.37-8.36.69-17.08,2-22.95,8.59-.64.72.42,1.78,1.06,1.06,9.89-11.05,28.82-8,42.09-9.64,3.27-.41,7.5-1.27,9.15-4.56,1.75-3.47-.54-7-3.27-9.1-4.84-3.78-11.71-5-17.58-6.06-7-1.26-13.94-2.23-20.61-4.84-6.3-2.46-12.3-5-19.06-6a55.41,55.41,0,0,0-20.76,1.2c-.94.23-.54,1.67.4,1.45Z" transform="translate(-25.08 -24.38)"/><path d="M418.87,262.39c-2.34,4.94.34,9.4,3.17,13.55,3.9,5.74,8.24,11.18,12.55,16.61,9.6,12.09,19.28,24.27,25,38.78.35.89,1.8.5,1.45-.4-4.43-11.34-11.22-21.34-18.63-30.93-3.73-4.82-7.57-9.55-11.31-14.36-4-5.14-14.22-15.47-10.88-22.49.41-.87-.88-1.63-1.3-.76Z" transform="translate(-25.08 -24.38)"/><path d="M459.73,330.89a125.12,125.12,0,0,1-14.23,62.72c-.45.85.85,1.61,1.3.76a126.79,126.79,0,0,0,14.43-63.48c0-1-1.53-1-1.5,0Z" transform="translate(-25.08 -24.38)"/><path d="M408.21,308.66c10.16,8.85,22.49,17.44,28.23,30,.4.87,1.69.11,1.3-.76-5.81-12.75-18.19-21.39-28.47-30.34-.73-.64-1.79.42-1.06,1.06Z" transform="translate(-25.08 -24.38)"/><path d="M436.84,339.26c2.26,5-.26,13.18-.81,18.46a88.24,88.24,0,0,0-.49,16.33c.67,8.07,3.15,15.71,8.35,22,.62.75,1.67-.32,1.06-1.06-6.92-8.36-8.49-19.2-8-29.74.23-5,.89-10.05,1.46-15.07.46-3.94,1.42-7.95-.25-11.68-.4-.88-1.69-.12-1.3.76Z" transform="translate(-25.08 -24.38)"/><path d="M366.16,245.19a72.32,72.32,0,0,0-14.55,45.4c.48,18.2,9.27,33.7,17.19,49.61.43.86,1.72.1,1.29-.76-7.78-15.66-16.51-30.93-17-48.85A71,71,0,0,1,367.46,246c.58-.77-.72-1.52-1.3-.76Z" transform="translate(-25.08 -24.38)"/><path d="M419.83,318.63a92,92,0,0,1,10.5,38.09c.05,1,1.55,1,1.5,0a94,94,0,0,0-10.71-38.85c-.45-.86-1.74-.1-1.29.76Z" transform="translate(-25.08 -24.38)"/><path d="M430.53,356.59a116.88,116.88,0,0,1-36.75,53.21c-.75.62.32,1.67,1.06,1.06A118.26,118.26,0,0,0,432,357c.31-.92-1.14-1.31-1.45-.4Z" transform="translate(-25.08 -24.38)"/><path d="M375.79,334.3c7.31,8.12,14.49,16.34,19.17,26.31.41.87,1.71.11,1.3-.76-4.74-10.09-12-18.4-19.41-26.61-.65-.72-1.71.34-1.06,1.06Z" transform="translate(-25.08 -24.38)"/><path d="M390.63,329.84c6.15,8.11,12.83,17.1,15.54,27a.75.75,0,0,0,1.45-.39c-2.75-10.1-9.45-19.18-15.69-27.41-.58-.76-1.88,0-1.3.76Z" transform="translate(-25.08 -24.38)"/><path d="M406.18,356.69c-1,10.7-9.75,18.92-13.83,28.52-3.39,8-4.48,16.68-1.44,25,.33.9,1.78.51,1.45-.4-4-10.79-.49-21.73,5.09-31.25,4.13-7,9.46-13.4,10.23-21.83.09-1-1.41-.95-1.5,0Z" transform="translate(-25.08 -24.38)"/><path d="M395,358.94c-4.9,8.45-11.44,17.11-12.75,27a33.31,33.31,0,0,0,5.31,22.64c.53.8,1.83.05,1.3-.76a31.73,31.73,0,0,1-4.62-24.52c1.95-8.46,7.76-16.22,12-23.64a.75.75,0,0,0-1.29-.75Z" transform="translate(-25.08 -24.38)"/><path d="M368.41,339.46c2.44,5.49,5.46,10.68,3.84,16.88-1.19,4.56-4.17,8.37-6.78,12.18-4.82,7-6.59,14.05-7.71,22.41-.12.95,1.38.94,1.5,0,.81-6.05,1.73-12.08,4.8-17.46,2.48-4.35,5.87-8.13,8.06-12.67,3.94-8.17,1-14.41-2.41-22.1-.39-.88-1.68-.12-1.3.76Z" transform="translate(-25.08 -24.38)"/><path d="M387.91,349.42c.36,5.08-.09,9.31-3,13.56-2.51,3.61-5.12,7.15-7.67,10.72-4.53,6.33-9.45,16.63-17.83,18.06-.95.16-.54,1.6.4,1.44,8.42-1.43,13.12-10.91,17.63-17.21,3.18-4.45,6.59-8.81,9.58-13.4,2.68-4.13,2.77-8.35,2.43-13.17-.06-1-1.56-1-1.5,0Z" transform="translate(-25.08 -24.38)"/><path d="M378.08,239.19a39.07,39.07,0,0,0,3.94,37c.54.79,1.84,0,1.29-.76a37.7,37.7,0,0,1-3.78-35.81c.36-.89-1.09-1.28-1.45-.4Z" transform="translate(-25.08 -24.38)"/><path d="M358.78,212.92A80,80,0,0,0,362,249.39c.3.91,1.75.52,1.44-.4a78.48,78.48,0,0,1-3.24-35.67c.14-.94-1.31-1.35-1.44-.4Z" transform="translate(-25.08 -24.38)"/></g><g id="head"><path d="M290.84,49.69c-14,1.07-23.4,8.18-28.89,12.34a71.72,71.72,0,0,0-22.54,29.29c-1.46-.38-5.09-1.1-7.66.86-3.67,2.81-2.53,9.11-1.77,13.33s1.83,10.1,6.84,12.91a12.84,12.84,0,0,0,8.18,1.3A126,126,0,0,0,251,131.34a129.74,129.74,0,0,0,16.39,22.4q1.37,9.66,2.74,19.33a21.62,21.62,0,0,0,5.55,4.91c2,1.22,8.55,4.83,16.36,2.72a19.75,19.75,0,0,0,8-4.43L304.2,156a54,54,0,0,0,12.43-9.17,55.28,55.28,0,0,0,14.32-25,9.57,9.57,0,0,0,5.9,1.1c7.36-1.29,10.34-13.08,11.08-16,1.5-5.92,3.23-10.37.77-12.76-2.19-2.13-6.69-1.83-11.22.34-.13-1.81-2.7-30.78-24.67-41.23C303.41,48.84,294,49.45,290.84,49.69Z" transform="translate(-25.08 -24.38)" style="fill:#fff"/><path d="M255.71,67.37c-.41,2.78-.92,6.84-1.21,11.75-.77,12.94-1.85,31.33,6.27,47.89,9.33,19,27.12,28.09,35.34,31.58-1.53,1.11-3.2,2.24-5,3.35a80.58,80.58,0,0,1-7.74,4.18l-.63,13.81a13.38,13.38,0,0,1-13.11-10.08L268.3,154a61.64,61.64,0,0,1-8.82-8.4,64.49,64.49,0,0,1-13.66-27,5.57,5.57,0,0,1-2.8,1.88c-2.3.59-4.37-.76-5.49-1.49-4.48-2.93-8.62-9.85-8.11-17.68.17-2.63.53-8.15,4.48-10.17a8.3,8.3,0,0,1,6-.32,68.08,68.08,0,0,1,15.85-23.46Z" transform="translate(-25.08 -24.38)" style="fill:#9e9e9e;opacity:0.24"/><path d="M243.83,103.6a104.56,104.56,0,0,0,5.86,14.54c10.62,21.56,26.49,35.14,37.75,42.91L275,163.63l-.14,13.85-3.61-3.3L267.74,155a77,77,0,0,1-8.26-9.36C248,130.23,244.8,113.83,243.83,103.6Z" transform="translate(-25.08 -24.38)" style="fill:#9e9e9e;opacity:0.36"/><path d="M285.76,47.66a55.62,55.62,0,0,0,7.79,20c13.87,21.73,38.74,26.08,43.93,26.87,3.86-2.51,8-3.37,10.31-1.66,2.86,2.13,1.77,7.39.79,12.12-.76,3.66-1.93,9.29-7,13.71a20.55,20.55,0,0,1-8.67,4.45l-3.15.43a51.29,51.29,0,0,1-5.74,13.59A53,53,0,0,1,304.2,156c-1.6,5-3.1,12.63-.52,20.62,6.1,18.95,32,30.4,53.66,24.8,17.73-4.59,31.38-20.32,35.09-40,4.3-2.71,16.16-11,18.31-24.33,3-18.69-14-41.61-43.58-48.72,0-2.9-.84-34.56-28-53.07-23.64-16.15-49.11-9.87-52.92-8.87a49.75,49.75,0,0,0-21.89-.32C239,31.62,219.29,58.45,212.8,93.59c-5.58.91-17.63,3.67-27.9,13.52-14.37,13.77-22,38.25-11.78,57.55,1.07,2,10.63,19.42,30.09,21.9a38.94,38.94,0,0,0,22.24-4c6.19,10.3,15.63,17.69,24,16.62,11.64-1.5,23.68-19.94,18.34-44.21a108.36,108.36,0,0,1-21.83-35.59,11.34,11.34,0,0,1-6.78.54c-6.4-1.6-9.3-9.27-9.77-14.37-.55-6,1.74-14.24,6.23-15,2.34-.38,4.6,1.4,6,2.76Z" transform="translate(-25.08 -24.38)" style="fill:#461eb8"/><path d="M242.41,103.67c-.29,12.75,6.26,26.91,13,37.48,6.5,10.13,15.68,18.36,27.44,21.64a.75.75,0,0,0,.39-1.44C271.32,158,262.18,149.4,255.85,139c-6.14-10.12-12.21-23.26-11.94-35.3a.75.75,0,0,0-1.5,0Z" transform="translate(-25.08 -24.38)"/><path d="M283.14,162.91a53.28,53.28,0,0,0,48.64-45.61c.13-1-1.31-1.35-1.45-.4a51.8,51.8,0,0,1-47.19,44.51c-1,.08-1,1.58,0,1.5Z" transform="translate(-25.08 -24.38)"/><path d="M266.62,153.94q1.19,8.64,2.8,17.21c.18.95,1.63.55,1.45-.39q-1.61-8.58-2.81-17.22c-.13-1-1.57-.55-1.44.4Z" transform="translate(-25.08 -24.38)"/><path d="M303.48,155.77q-1.19,8.4-3.15,16.64c-.22.94,1.22,1.34,1.45.4q2-8.25,3.14-16.65c.14-.94-1.31-1.35-1.44-.39Z" transform="translate(-25.08 -24.38)"/><path d="M270.81,175.15c7.92,7.14,19.7,10.27,28.12,2.12.7-.68-.36-1.74-1.06-1.06-7.86,7.61-18.71,4.45-26-2.12-.71-.64-1.78.42-1.06,1.06Z" transform="translate(-25.08 -24.38)"/><path d="M244.62,119.07c-7.32,3.58-12.28-7.26-13.65-12.61a24.48,24.48,0,0,1-.81-7.66c.3-4.18,3.65-10.53,8.87-6.83.79.56,1.54-.74.76-1.3a6.45,6.45,0,0,0-8.57,1c-2.91,3.07-2.85,8.15-2.32,12,1,7.14,7,21.32,16.48,16.7.87-.42.11-1.72-.76-1.3Z" transform="translate(-25.08 -24.38)"/><path d="M330.42,122.36C339,130.05,347.12,111.9,349,106c1.27-3.9,2.76-10.31-.71-13.66-3.3-3.19-7.87-.91-10.93,1.28-.77.56,0,1.86.76,1.3a19.73,19.73,0,0,1,2.31-1.54A5.55,5.55,0,0,1,348.67,97c.81,2.94-.37,6.6-1.35,9.39-1.42,4.08-8.8,21.16-15.84,14.88-.72-.64-1.78.42-1.06,1.06Z" transform="translate(-25.08 -24.38)"/><path d="M284.74,83a212.8,212.8,0,0,0-.49,44.78c.07.67,1.05,1.12,1.4.38l5-10.5c.42-.86-.88-1.63-1.29-.75l-5,10.49,1.39.38A212.8,212.8,0,0,1,286.24,83c.12-1-1.38-1-1.5,0Z" transform="translate(-25.08 -24.38)"/><path d="M276.94,133.86c11.47,6.57,24.25.18,29.37-11.17.39-.87-.9-1.64-1.3-.76-4.75,10.55-16.51,16.82-27.31,10.63a.75.75,0,0,0-.76,1.3Z" transform="translate(-25.08 -24.38)"/><path d="M261.37,111.24h.2a.75.75,0,0,0,0-1.5h-.2a.75.75,0,0,0,0,1.5Z" transform="translate(-25.08 -24.38)"/><path d="M269.77,106.43v.2a.75.75,0,0,0,1.5,0v-.2a.75.75,0,0,0-1.5,0Z" transform="translate(-25.08 -24.38)"/><path d="M270.52,116.33a.75.75,0,0,0,0-1.5.75.75,0,0,0,0,1.5Z" transform="translate(-25.08 -24.38)"/><path d="M303.68,106a.75.75,0,0,0,0-1.5.75.75,0,0,0,0,1.5Z" transform="translate(-25.08 -24.38)"/><path d="M314.87,105.55a.75.75,0,0,0,0-1.5.75.75,0,0,0,0,1.5Z" transform="translate(-25.08 -24.38)"/><path d="M310.6,112.26a.75.75,0,0,0,0-1.5.75.75,0,0,0,0,1.5Z" transform="translate(-25.08 -24.38)"/><path d="M261.05,95c3.76-5.49,11.73-7.43,16.18-1.54.57.76,1.88,0,1.3-.76-5.14-6.8-14.31-5-18.77,1.54-.55.8.75,1.55,1.29.76Z" transform="translate(-25.08 -24.38)"/><path d="M299.94,91.9a11.1,11.1,0,0,1,16.49,1.91c.56.77,1.86,0,1.29-.76a12.64,12.64,0,0,0-18.84-2.21c-.74.62.32,1.68,1.06,1.06Z" transform="translate(-25.08 -24.38)"/><path d="M263.38,74.84c2.35-5.35,10.25-11.18,14.52-4.19.5.83,1.8.07,1.29-.75-4.84-7.93-14.22-2.37-17.1,4.19-.39.87.9,1.64,1.29.75Z" transform="translate(-25.08 -24.38)"/><path d="M300,70.64a9.78,9.78,0,0,1,10.38-3.11c3.46,1.11,6,4.54,8,7.39.55.78,1.86,0,1.3-.76-2.54-3.6-5.58-7.45-10.12-8.39A11.14,11.14,0,0,0,299,69.58c-.64.72.42,1.78,1.06,1.06Z" transform="translate(-25.08 -24.38)"/></g></g><g id="heart"><path d="M284.11,366.43c-19.62-9.58-51-29-71-65.34-4.49-8.14-34.7-62.67-11.92-85,12.48-12.26,37.51-12.77,55.48-1.56,22.34,13.94,23.77,39.75,23.85,42-.18-2-2.2-28.69,18.67-45.11,19-15,46.92-13.46,60.67-.52,22.84,21.5-.92,71.18-7.24,84.47C334.48,333.49,303.84,355.28,284.11,366.43Z" transform="translate(-25.08 -24.38)" style="fill:#ec615b;stroke:#000;stroke-miterlimit:10;stroke-width:4px"/></g></svg>